<?xml version="1.0" encoding="utf-8" standalone="no"?>
<!DOCTYPE svg PUBLIC "-//W3C//DTD SVG 1.1//EN"
  "http://www.w3.org/Graphics/SVG/1.1/DTD/svg11.dtd">
<svg xmlns:xlink="http://www.w3.org/1999/xlink" width="520.565625pt" height="259.845987pt" viewBox="0 0 520.565625 259.845987" xmlns="http://www.w3.org/2000/svg" version="1.1">
 <metadata>
  <rdf:RDF xmlns:dc="http://purl.org/dc/elements/1.1/" xmlns:cc="http://creativecommons.org/ns#" xmlns:rdf="http://www.w3.org/1999/02/22-rdf-syntax-ns#">
   <cc:Work>
    <dc:type rdf:resource="http://purl.org/dc/dcmitype/StillImage"/>
    <dc:date>2026-08-06T00:35:37.522113</dc:date>
    <dc:format>image/svg+xml</dc:format>
    <dc:creator>
     <cc:Agent>
      <dc:title>Matplotlib v3.10.8, https://matplotlib.org/</dc:title>
     </cc:Agent>
    </dc:creator>
   </cc:Work>
  </rdf:RDF>
 </metadata>
 <defs>
  <style type="text/css">*{stroke-linejoin: round; stroke-linecap: butt}</style>
 </defs>
 <g id="figure_1">
  <g id="patch_1">
   <path d="M 0 259.845987
L 520.565625 259.845987
L 520.565625 0
L 0 0
z
" style="fill: #ffffff"/>
  </g>
  <g id="axes_1">
   <g id="patch_2">
    <path d="M 43.239375 227.935362
L 247.030679 227.935362
L 247.030679 25.579362
L 43.239375 25.579362
z
" style="fill: #ffffff"/>
   </g>
   <g id="FillBetweenPolyCollection_1">
    <defs>
     <path id="mf8aa6e0cb9" d="M 46.150679 -202.873915
L 46.150679 -198.829991
L 51.973288 -89.178508
L 57.795897 -86.269849
L 63.618505 -81.261176
L 69.441114 -80.51879
L 75.263723 -78.380143
L 81.086332 -78.492419
L 86.90894 -78.090817
L 92.731549 -75.753107
L 98.554158 -76.048737
L 104.376766 -73.122262
L 110.199375 -71.628813
L 116.021984 -72.819059
L 121.844592 -69.9521
L 127.667201 -70.894442
L 133.48981 -65.966413
L 139.312418 -66.654803
L 145.135027 -66.606648
L 150.957636 -60.786806
L 156.780245 -62.646842
L 162.602853 -63.399738
L 168.425462 -59.660302
L 174.248071 -60.699051
L 180.070679 -58.707786
L 185.893288 -59.008599
L 191.715897 -59.628588
L 197.538505 -60.513358
L 203.361114 -58.228012
L 209.183723 -57.456539
L 215.006332 -57.788347
L 220.82894 -55.500876
L 226.651549 -56.26354
L 232.474158 -59.27583
L 238.296766 -62.731494
L 244.119375 -58.996689
L 244.119375 -69.634821
L 244.119375 -69.634821
L 238.296766 -72.356956
L 232.474158 -69.182379
L 226.651549 -68.240722
L 220.82894 -64.11023
L 215.006332 -66.68684
L 209.183723 -65.394129
L 203.361114 -67.874379
L 197.538505 -67.075888
L 191.715897 -67.941306
L 185.893288 -66.387105
L 180.070679 -66.906722
L 174.248071 -67.873519
L 168.425462 -68.42142
L 162.602853 -71.946632
L 156.780245 -69.280334
L 150.957636 -68.331776
L 145.135027 -72.653825
L 139.312418 -71.222472
L 133.48981 -72.112205
L 127.667201 -76.86648
L 121.844592 -75.282747
L 116.021984 -79.016385
L 110.199375 -76.411486
L 104.376766 -79.09029
L 98.554158 -79.738747
L 92.731549 -80.914566
L 86.90894 -82.945579
L 81.086332 -83.115835
L 75.263723 -83.2759
L 69.441114 -85.22003
L 63.618505 -84.284359
L 57.795897 -90.023456
L 51.973288 -93.034905
L 46.150679 -202.873915
z
"/>
    </defs>
    <g clip-path="url(#pb755442907)">
     <use xlink:href="#mf8aa6e0cb9" x="0" y="259.845987" style="fill: #d62728; fill-opacity: 0.11"/>
    </g>
   </g>
   <g id="FillBetweenPolyCollection_2">
    <defs>
     <path id="m8e78d90d88" d="M 46.150679 -193.207313
L 46.150679 -188.371793
L 51.973288 -73.431814
L 57.795897 -71.918127
L 63.618505 -68.760708
L 69.441114 -67.449449
L 75.263723 -67.054263
L 81.086332 -67.288909
L 86.90894 -65.372355
L 92.731549 -62.297161
L 98.554158 -59.236762
L 104.376766 -58.266089
L 110.199375 -59.678656
L 116.021984 -56.853606
L 121.844592 -53.082556
L 127.667201 -55.80638
L 133.48981 -53.564316
L 139.312418 -52.733114
L 145.135027 -54.89172
L 150.957636 -51.387003
L 156.780245 -54.228561
L 162.602853 -50.044226
L 168.425462 -52.134183
L 174.248071 -49.619758
L 180.070679 -47.716061
L 185.893288 -48.587075
L 191.715897 -54.158053
L 197.538505 -47.491288
L 203.361114 -50.722024
L 209.183723 -49.628552
L 215.006332 -49.051741
L 220.82894 -49.149585
L 226.651549 -47.666149
L 232.474158 -53.350329
L 238.296766 -50.930413
L 244.119375 -49.772228
L 244.119375 -56.012392
L 244.119375 -56.012392
L 238.296766 -57.746558
L 232.474158 -59.399583
L 226.651549 -55.41317
L 220.82894 -55.533186
L 215.006332 -55.112281
L 209.183723 -55.035641
L 203.361114 -56.525576
L 197.538505 -51.38123
L 191.715897 -60.044974
L 185.893288 -53.215913
L 180.070679 -53.861362
L 174.248071 -54.14435
L 168.425462 -57.785842
L 162.602853 -56.150189
L 156.780245 -58.797843
L 150.957636 -55.57682
L 145.135027 -60.020191
L 139.312418 -57.047872
L 133.48981 -58.406194
L 127.667201 -61.155273
L 121.844592 -57.679628
L 116.021984 -60.972544
L 110.199375 -64.167581
L 104.376766 -63.634733
L 98.554158 -62.893674
L 92.731549 -66.437754
L 86.90894 -70.342862
L 81.086332 -71.255637
L 75.263723 -72.131209
L 69.441114 -72.14932
L 63.618505 -72.288834
L 57.795897 -75.855177
L 51.973288 -77.033012
L 46.150679 -193.207313
z
"/>
    </defs>
    <g clip-path="url(#pb755442907)">
     <use xlink:href="#m8e78d90d88" x="0" y="259.845987" style="fill: #1f77b4; fill-opacity: 0.11"/>
    </g>
   </g>
   <g id="FillBetweenPolyCollection_3">
    <defs>
     <path id="m61883b132b" d="M 46.150679 -226.130144
L 46.150679 -221.97297
L 51.973288 -118.487404
L 57.795897 -105.736555
L 63.618505 -97.670853
L 69.441114 -93.591299
L 75.263723 -91.339902
L 81.086332 -88.47329
L 86.90894 -88.924706
L 92.731549 -86.200258
L 98.554158 -87.884924
L 104.376766 -85.00592
L 110.199375 -85.784004
L 116.021984 -84.753657
L 121.844592 -81.493364
L 127.667201 -81.04671
L 133.48981 -79.282354
L 139.312418 -79.937598
L 145.135027 -76.213868
L 150.957636 -74.377748
L 156.780245 -80.29852
L 162.602853 -76.02271
L 168.425462 -77.170265
L 174.248071 -78.849676
L 180.070679 -75.209987
L 185.893288 -77.162523
L 191.715897 -78.322406
L 197.538505 -90.551613
L 203.361114 -80.935458
L 209.183723 -79.487787
L 215.006332 -87.901238
L 220.82894 -85.202369
L 226.651549 -83.109474
L 232.474158 -80.016618
L 238.296766 -81.694339
L 244.119375 -86.345551
L 244.119375 -115.837859
L 244.119375 -115.837859
L 238.296766 -110.575517
L 232.474158 -109.635842
L 226.651549 -105.222121
L 220.82894 -102.809236
L 215.006332 -108.523886
L 209.183723 -97.274084
L 203.361114 -98.406617
L 197.538505 -105.122334
L 191.715897 -94.110489
L 185.893288 -91.865067
L 180.070679 -89.125095
L 174.248071 -89.320407
L 168.425462 -87.272428
L 162.602853 -87.070787
L 156.780245 -88.14685
L 150.957636 -83.785934
L 145.135027 -83.800905
L 139.312418 -87.530779
L 133.48981 -87.305935
L 127.667201 -89.218319
L 121.844592 -87.972247
L 116.021984 -91.931787
L 110.199375 -91.713052
L 104.376766 -92.371583
L 98.554158 -93.852944
L 92.731549 -92.451483
L 86.90894 -95.014491
L 81.086332 -93.243848
L 75.263723 -95.732325
L 69.441114 -97.410779
L 63.618505 -101.149319
L 57.795897 -110.742727
L 51.973288 -122.597734
L 46.150679 -226.130144
z
"/>
    </defs>
    <g clip-path="url(#pb755442907)">
     <use xlink:href="#m61883b132b" x="0" y="259.845987" style="fill-opacity: 0.11"/>
    </g>
   </g>
   <g id="FillBetweenPolyCollection_4">
    <defs>
     <path id="m05baa9a644" d="M 46.150679 -191.119294
L 46.150679 -187.928487
L 51.973288 -149.32955
L 57.795897 -105.352658
L 63.618505 -99.865257
L 69.441114 -96.836176
L 75.263723 -90.530426
L 81.086332 -90.002084
L 86.90894 -89.097877
L 92.731549 -87.211315
L 98.554158 -87.926163
L 104.376766 -85.220934
L 110.199375 -85.964323
L 116.021984 -82.910573
L 121.844592 -83.313417
L 127.667201 -80.841082
L 133.48981 -78.751249
L 139.312418 -78.821816
L 145.135027 -78.059161
L 150.957636 -73.502227
L 156.780245 -77.501106
L 162.602853 -74.109565
L 168.425462 -78.921763
L 174.248071 -77.479351
L 180.070679 -76.597952
L 185.893288 -84.118204
L 191.715897 -78.086307
L 197.538505 -84.370538
L 203.361114 -83.632589
L 209.183723 -87.649512
L 215.006332 -79.676515
L 220.82894 -84.356182
L 226.651549 -86.540161
L 232.474158 -78.468698
L 238.296766 -75.572346
L 244.119375 -84.118092
L 244.119375 -112.373581
L 244.119375 -112.373581
L 238.296766 -103.699037
L 232.474158 -100.746102
L 226.651549 -107.893199
L 220.82894 -106.774647
L 215.006332 -98.229408
L 209.183723 -104.693389
L 203.361114 -96.712242
L 197.538505 -99.617455
L 191.715897 -92.949606
L 185.893288 -98.001909
L 180.070679 -88.094679
L 174.248071 -86.067176
L 168.425462 -88.380878
L 162.602853 -84.76827
L 156.780245 -86.270312
L 150.957636 -82.742007
L 145.135027 -86.653992
L 139.312418 -87.025318
L 133.48981 -86.281143
L 127.667201 -88.449198
L 121.844592 -91.101178
L 116.021984 -89.784786
L 110.199375 -92.428292
L 104.376766 -90.76004
L 98.554158 -94.123073
L 92.731549 -92.639444
L 86.90894 -94.82683
L 81.086332 -95.065635
L 75.263723 -94.471994
L 69.441114 -100.642134
L 63.618505 -103.517102
L 57.795897 -109.612194
L 51.973288 -152.960421
L 46.150679 -191.119294
z
"/>
    </defs>
    <g clip-path="url(#pb755442907)">
     <use xlink:href="#m05baa9a644" x="0" y="259.845987" style="fill: #808080; fill-opacity: 0.11"/>
    </g>
   </g>
   <g id="matplotlib.axis_1">
    <g id="xtick_1">
     <g id="line2d_1">
      <defs>
       <path id="m67d3641d34" d="M 0 0
L 0 3
" style="stroke: #000000; stroke-width: 0.8"/>
      </defs>
      <g>
       <use xlink:href="#m67d3641d34" x="43.239375" y="227.935362" style="stroke: #000000; stroke-width: 0.8"/>
      </g>
     </g>
     <g id="text_1">
      <!-- 0 -->
      <g transform="translate(40.37625 241.273956) scale(0.09 -0.09)">
       <defs>
        <path id="DejaVuSerif-30" d="M 2034 219
Q 2513 219 2750 744
Q 2988 1269 2988 2328
Q 2988 3391 2750 3916
Q 2513 4441 2034 4441
Q 1556 4441 1318 3916
Q 1081 3391 1081 2328
Q 1081 1269 1318 744
Q 1556 219 2034 219
z
M 2034 -91
Q 1275 -91 848 546
Q 422 1184 422 2328
Q 422 3475 848 4112
Q 1275 4750 2034 4750
Q 2797 4750 3222 4112
Q 3647 3475 3647 2328
Q 3647 1184 3222 546
Q 2797 -91 2034 -91
z
" transform="scale(0.015625)"/>
       </defs>
       <use xlink:href="#DejaVuSerif-30"/>
      </g>
     </g>
    </g>
    <g id="xtick_2">
     <g id="line2d_2">
      <g>
       <use xlink:href="#m67d3641d34" x="72.352418" y="227.935362" style="stroke: #000000; stroke-width: 0.8"/>
      </g>
     </g>
     <g id="text_2">
      <!-- 5 -->
      <g transform="translate(69.489293 241.273956) scale(0.09 -0.09)">
       <defs>
        <path id="DejaVuSerif-35" d="M 3219 4666
L 3219 4153
L 1081 4153
L 1081 2816
Q 1244 2928 1461 2984
Q 1678 3041 1947 3041
Q 2703 3041 3140 2622
Q 3578 2203 3578 1478
Q 3578 738 3136 323
Q 2694 -91 1894 -91
Q 1572 -91 1234 -12
Q 897 66 544 225
L 544 1131
L 897 1131
Q 925 688 1179 453
Q 1434 219 1894 219
Q 2388 219 2653 544
Q 2919 869 2919 1478
Q 2919 2084 2655 2407
Q 2391 2731 1894 2731
Q 1613 2731 1398 2631
Q 1184 2531 1019 2322
L 750 2322
L 750 4666
L 3219 4666
z
" transform="scale(0.015625)"/>
       </defs>
       <use xlink:href="#DejaVuSerif-35"/>
      </g>
     </g>
    </g>
    <g id="xtick_3">
     <g id="line2d_3">
      <g>
       <use xlink:href="#m67d3641d34" x="101.465462" y="227.935362" style="stroke: #000000; stroke-width: 0.8"/>
      </g>
     </g>
     <g id="text_3">
      <!-- 10 -->
      <g transform="translate(95.739212 241.273956) scale(0.09 -0.09)">
       <defs>
        <path id="DejaVuSerif-31" d="M 909 0
L 909 331
L 1722 331
L 1722 4213
L 781 3603
L 781 4013
L 1919 4750
L 2350 4750
L 2350 331
L 3163 331
L 3163 0
L 909 0
z
" transform="scale(0.015625)"/>
       </defs>
       <use xlink:href="#DejaVuSerif-31"/>
       <use xlink:href="#DejaVuSerif-30" transform="translate(63.623047 0)"/>
      </g>
     </g>
    </g>
    <g id="xtick_4">
     <g id="line2d_4">
      <g>
       <use xlink:href="#m67d3641d34" x="130.578505" y="227.935362" style="stroke: #000000; stroke-width: 0.8"/>
      </g>
     </g>
     <g id="text_4">
      <!-- 15 -->
      <g transform="translate(124.852255 241.273956) scale(0.09 -0.09)">
       <use xlink:href="#DejaVuSerif-31"/>
       <use xlink:href="#DejaVuSerif-35" transform="translate(63.623047 0)"/>
      </g>
     </g>
    </g>
    <g id="xtick_5">
     <g id="line2d_5">
      <g>
       <use xlink:href="#m67d3641d34" x="159.691549" y="227.935362" style="stroke: #000000; stroke-width: 0.8"/>
      </g>
     </g>
     <g id="text_5">
      <!-- 20 -->
      <g transform="translate(153.965299 241.273956) scale(0.09 -0.09)">
       <defs>
        <path id="DejaVuSerif-32" d="M 819 3553
L 469 3553
L 469 4384
Q 803 4563 1142 4656
Q 1481 4750 1806 4750
Q 2534 4750 2956 4397
Q 3378 4044 3378 3438
Q 3378 2753 2422 1800
Q 2347 1728 2309 1691
L 1131 513
L 3078 513
L 3078 1088
L 3444 1088
L 3444 0
L 434 0
L 434 341
L 1850 1753
Q 2319 2222 2519 2614
Q 2719 3006 2719 3438
Q 2719 3909 2473 4175
Q 2228 4441 1797 4441
Q 1350 4441 1106 4219
Q 863 3997 819 3553
z
" transform="scale(0.015625)"/>
       </defs>
       <use xlink:href="#DejaVuSerif-32"/>
       <use xlink:href="#DejaVuSerif-30" transform="translate(63.623047 0)"/>
      </g>
     </g>
    </g>
    <g id="xtick_6">
     <g id="line2d_6">
      <g>
       <use xlink:href="#m67d3641d34" x="188.804592" y="227.935362" style="stroke: #000000; stroke-width: 0.8"/>
      </g>
     </g>
     <g id="text_6">
      <!-- 25 -->
      <g transform="translate(183.078342 241.273956) scale(0.09 -0.09)">
       <use xlink:href="#DejaVuSerif-32"/>
       <use xlink:href="#DejaVuSerif-35" transform="translate(63.623047 0)"/>
      </g>
     </g>
    </g>
    <g id="xtick_7">
     <g id="line2d_7">
      <g>
       <use xlink:href="#m67d3641d34" x="217.917636" y="227.935362" style="stroke: #000000; stroke-width: 0.8"/>
      </g>
     </g>
     <g id="text_7">
      <!-- 30 -->
      <g transform="translate(212.191386 241.273956) scale(0.09 -0.09)">
       <defs>
        <path id="DejaVuSerif-33" d="M 622 4469
Q 988 4606 1323 4678
Q 1659 4750 1953 4750
Q 2638 4750 3022 4454
Q 3406 4159 3406 3634
Q 3406 3213 3140 2930
Q 2875 2647 2388 2547
Q 2963 2466 3280 2130
Q 3597 1794 3597 1259
Q 3597 606 3158 257
Q 2719 -91 1894 -91
Q 1528 -91 1179 -12
Q 831 66 488 225
L 488 1131
L 838 1131
Q 869 681 1141 450
Q 1413 219 1906 219
Q 2384 219 2661 495
Q 2938 772 2938 1253
Q 2938 1803 2653 2086
Q 2369 2369 1819 2369
L 1522 2369
L 1522 2688
L 1678 2688
Q 2225 2688 2498 2914
Q 2772 3141 2772 3597
Q 2772 4006 2547 4223
Q 2322 4441 1900 4441
Q 1478 4441 1245 4241
Q 1013 4041 972 3647
L 622 3647
L 622 4469
z
" transform="scale(0.015625)"/>
       </defs>
       <use xlink:href="#DejaVuSerif-33"/>
       <use xlink:href="#DejaVuSerif-30" transform="translate(63.623047 0)"/>
      </g>
     </g>
    </g>
    <g id="xtick_8">
     <g id="line2d_8">
      <g>
       <use xlink:href="#m67d3641d34" x="247.030679" y="227.935362" style="stroke: #000000; stroke-width: 0.8"/>
      </g>
     </g>
     <g id="text_8">
      <!-- 35 -->
      <g transform="translate(241.304429 241.273956) scale(0.09 -0.09)">
       <use xlink:href="#DejaVuSerif-33"/>
       <use xlink:href="#DejaVuSerif-35" transform="translate(63.623047 0)"/>
      </g>
     </g>
    </g>
    <g id="text_9">
     <!-- Run age (s) -->
     <g transform="translate(116.14284 254.744112) scale(0.1 -0.1)">
      <defs>
       <path id="DejaVuSerif-52" d="M 3066 2316
Q 3284 2256 3442 2114
Q 3600 1972 3725 1716
L 4403 331
L 4972 331
L 4972 0
L 3872 0
L 3144 1484
Q 2934 1916 2759 2042
Q 2584 2169 2278 2169
L 1581 2169
L 1581 331
L 2241 331
L 2241 0
L 353 0
L 353 331
L 947 331
L 947 4331
L 353 4331
L 353 4666
L 2719 4666
Q 3400 4666 3770 4341
Q 4141 4016 4141 3419
Q 4141 2938 3870 2661
Q 3600 2384 3066 2316
z
M 1581 2503
L 2503 2503
Q 2975 2503 3200 2726
Q 3425 2950 3425 3419
Q 3425 3888 3200 4109
Q 2975 4331 2503 4331
L 1581 4331
L 1581 2503
z
" transform="scale(0.015625)"/>
       <path id="DejaVuSerif-75" d="M 2266 3322
L 3341 3322
L 3341 331
L 3884 331
L 3884 0
L 2766 0
L 2766 588
Q 2606 256 2353 82
Q 2100 -91 1766 -91
Q 1213 -91 952 223
Q 691 538 691 1209
L 691 2988
L 172 2988
L 172 3322
L 1269 3322
L 1269 1388
Q 1269 781 1417 556
Q 1566 331 1947 331
Q 2347 331 2556 625
Q 2766 919 2766 1478
L 2766 2988
L 2266 2988
L 2266 3322
z
" transform="scale(0.015625)"/>
       <path id="DejaVuSerif-6e" d="M 263 0
L 263 331
L 781 331
L 781 2988
L 231 2988
L 231 3322
L 1356 3322
L 1356 2731
Q 1516 3069 1770 3241
Q 2025 3413 2363 3413
Q 2913 3413 3172 3097
Q 3431 2781 3431 2113
L 3431 331
L 3944 331
L 3944 0
L 2356 0
L 2356 331
L 2853 331
L 2853 1931
Q 2853 2541 2703 2767
Q 2553 2994 2175 2994
Q 1775 2994 1565 2701
Q 1356 2409 1356 1850
L 1356 331
L 1856 331
L 1856 0
L 263 0
z
" transform="scale(0.015625)"/>
       <path id="DejaVuSerif-20" transform="scale(0.015625)"/>
       <path id="DejaVuSerif-61" d="M 2547 1044
L 2547 1747
L 1806 1747
Q 1378 1747 1168 1562
Q 959 1378 959 997
Q 959 650 1171 447
Q 1384 244 1747 244
Q 2106 244 2326 466
Q 2547 688 2547 1044
z
M 3122 2075
L 3122 331
L 3634 331
L 3634 0
L 2547 0
L 2547 359
Q 2356 128 2106 18
Q 1856 -91 1522 -91
Q 969 -91 644 203
Q 319 497 319 997
Q 319 1513 691 1797
Q 1063 2081 1741 2081
L 2547 2081
L 2547 2309
Q 2547 2688 2317 2895
Q 2088 3103 1672 3103
Q 1328 3103 1125 2947
Q 922 2791 872 2484
L 575 2484
L 575 3156
Q 875 3284 1158 3348
Q 1441 3413 1709 3413
Q 2400 3413 2761 3070
Q 3122 2728 3122 2075
z
" transform="scale(0.015625)"/>
       <path id="DejaVuSerif-67" d="M 3359 2988
L 3359 72
Q 3359 -644 2965 -1033
Q 2572 -1422 1844 -1422
Q 1516 -1422 1216 -1362
Q 916 -1303 641 -1184
L 641 -488
L 941 -488
Q 997 -813 1206 -963
Q 1416 -1113 1806 -1113
Q 2313 -1113 2548 -827
Q 2784 -541 2784 72
L 2784 519
Q 2616 206 2355 57
Q 2094 -91 1709 -91
Q 1097 -91 708 395
Q 319 881 319 1663
Q 319 2444 706 2928
Q 1094 3413 1709 3413
Q 2094 3413 2355 3264
Q 2616 3116 2784 2803
L 2784 3322
L 3909 3322
L 3909 2988
L 3359 2988
z
M 2784 1825
Q 2784 2422 2554 2737
Q 2325 3053 1888 3053
Q 1444 3053 1217 2703
Q 991 2353 991 1663
Q 991 975 1217 622
Q 1444 269 1888 269
Q 2325 269 2554 583
Q 2784 897 2784 1497
L 2784 1825
z
" transform="scale(0.015625)"/>
       <path id="DejaVuSerif-65" d="M 3469 1600
L 991 1600
L 991 1575
Q 991 903 1244 561
Q 1497 219 1991 219
Q 2369 219 2611 417
Q 2853 616 2950 1006
L 3413 1006
Q 3275 459 2904 184
Q 2534 -91 1931 -91
Q 1203 -91 761 389
Q 319 869 319 1663
Q 319 2450 753 2931
Q 1188 3413 1894 3413
Q 2647 3413 3050 2948
Q 3453 2484 3469 1600
z
M 2791 1931
Q 2772 2513 2545 2808
Q 2319 3103 1894 3103
Q 1497 3103 1269 2806
Q 1041 2509 991 1931
L 2791 1931
z
" transform="scale(0.015625)"/>
       <path id="DejaVuSerif-28" d="M 2041 -997
Q 1281 -656 893 83
Q 506 822 506 1931
Q 506 3044 893 3783
Q 1281 4522 2041 4863
L 2041 4556
Q 1559 4225 1350 3623
Q 1141 3022 1141 1931
Q 1141 844 1350 242
Q 1559 -359 2041 -691
L 2041 -997
z
" transform="scale(0.015625)"/>
       <path id="DejaVuSerif-73" d="M 359 184
L 359 959
L 691 959
Q 703 588 923 403
Q 1144 219 1575 219
Q 1963 219 2166 364
Q 2369 509 2369 788
Q 2369 1006 2220 1140
Q 2072 1275 1594 1428
L 1178 1569
Q 750 1706 558 1912
Q 366 2119 366 2438
Q 366 2894 700 3153
Q 1034 3413 1625 3413
Q 1888 3413 2178 3344
Q 2469 3275 2778 3144
L 2778 2419
L 2447 2419
Q 2434 2741 2221 2922
Q 2009 3103 1644 3103
Q 1281 3103 1095 2975
Q 909 2847 909 2591
Q 909 2381 1050 2254
Q 1191 2128 1613 1997
L 2069 1856
Q 2541 1709 2748 1489
Q 2956 1269 2956 922
Q 2956 450 2595 179
Q 2234 -91 1600 -91
Q 1278 -91 972 -22
Q 666 47 359 184
z
" transform="scale(0.015625)"/>
       <path id="DejaVuSerif-29" d="M 453 -997
L 453 -691
Q 934 -359 1145 242
Q 1356 844 1356 1931
Q 1356 3022 1145 3623
Q 934 4225 453 4556
L 453 4863
Q 1216 4522 1603 3783
Q 1991 3044 1991 1931
Q 1991 822 1603 83
Q 1216 -656 453 -997
z
" transform="scale(0.015625)"/>
      </defs>
      <use xlink:href="#DejaVuSerif-52"/>
      <use xlink:href="#DejaVuSerif-75" transform="translate(75.292969 0)"/>
      <use xlink:href="#DejaVuSerif-6e" transform="translate(139.697266 0)"/>
      <use xlink:href="#DejaVuSerif-20" transform="translate(204.101562 0)"/>
      <use xlink:href="#DejaVuSerif-61" transform="translate(235.888672 0)"/>
      <use xlink:href="#DejaVuSerif-67" transform="translate(295.507812 0)"/>
      <use xlink:href="#DejaVuSerif-65" transform="translate(359.521484 0)"/>
      <use xlink:href="#DejaVuSerif-20" transform="translate(418.701172 0)"/>
      <use xlink:href="#DejaVuSerif-28" transform="translate(450.488281 0)"/>
      <use xlink:href="#DejaVuSerif-73" transform="translate(489.501953 0)"/>
      <use xlink:href="#DejaVuSerif-29" transform="translate(540.820312 0)"/>
     </g>
    </g>
   </g>
   <g id="matplotlib.axis_2">
    <g id="ytick_1">
     <g id="line2d_9">
      <defs>
       <path id="m82ca6935f7" d="M 0 0
L -3 0
" style="stroke: #000000; stroke-width: 0.8"/>
      </defs>
      <g>
       <use xlink:href="#m82ca6935f7" x="43.239375" y="227.935362" style="stroke: #000000; stroke-width: 0.8"/>
      </g>
     </g>
     <g id="text_10">
      <!-- 0.00 -->
      <g transform="translate(16.700313 231.354659) scale(0.09 -0.09)">
       <defs>
        <path id="DejaVuSerif-2e" d="M 603 325
Q 603 500 722 622
Q 841 744 1019 744
Q 1191 744 1312 622
Q 1434 500 1434 325
Q 1434 153 1312 31
Q 1191 -91 1019 -91
Q 841 -91 722 29
Q 603 150 603 325
z
" transform="scale(0.015625)"/>
       </defs>
       <use xlink:href="#DejaVuSerif-30"/>
       <use xlink:href="#DejaVuSerif-2e" transform="translate(63.623047 0)"/>
       <use xlink:href="#DejaVuSerif-30" transform="translate(95.410156 0)"/>
       <use xlink:href="#DejaVuSerif-30" transform="translate(159.033203 0)"/>
      </g>
     </g>
    </g>
    <g id="ytick_2">
     <g id="line2d_10">
      <g>
       <use xlink:href="#m82ca6935f7" x="43.239375" y="204.940362" style="stroke: #000000; stroke-width: 0.8"/>
      </g>
     </g>
     <g id="text_11">
      <!-- 0.05 -->
      <g transform="translate(16.700313 208.359659) scale(0.09 -0.09)">
       <use xlink:href="#DejaVuSerif-30"/>
       <use xlink:href="#DejaVuSerif-2e" transform="translate(63.623047 0)"/>
       <use xlink:href="#DejaVuSerif-30" transform="translate(95.410156 0)"/>
       <use xlink:href="#DejaVuSerif-35" transform="translate(159.033203 0)"/>
      </g>
     </g>
    </g>
    <g id="ytick_3">
     <g id="line2d_11">
      <g>
       <use xlink:href="#m82ca6935f7" x="43.239375" y="181.945362" style="stroke: #000000; stroke-width: 0.8"/>
      </g>
     </g>
     <g id="text_12">
      <!-- 0.10 -->
      <g transform="translate(16.700313 185.364659) scale(0.09 -0.09)">
       <use xlink:href="#DejaVuSerif-30"/>
       <use xlink:href="#DejaVuSerif-2e" transform="translate(63.623047 0)"/>
       <use xlink:href="#DejaVuSerif-31" transform="translate(95.410156 0)"/>
       <use xlink:href="#DejaVuSerif-30" transform="translate(159.033203 0)"/>
      </g>
     </g>
    </g>
    <g id="ytick_4">
     <g id="line2d_12">
      <g>
       <use xlink:href="#m82ca6935f7" x="43.239375" y="158.950362" style="stroke: #000000; stroke-width: 0.8"/>
      </g>
     </g>
     <g id="text_13">
      <!-- 0.15 -->
      <g transform="translate(16.700313 162.369659) scale(0.09 -0.09)">
       <use xlink:href="#DejaVuSerif-30"/>
       <use xlink:href="#DejaVuSerif-2e" transform="translate(63.623047 0)"/>
       <use xlink:href="#DejaVuSerif-31" transform="translate(95.410156 0)"/>
       <use xlink:href="#DejaVuSerif-35" transform="translate(159.033203 0)"/>
      </g>
     </g>
    </g>
    <g id="ytick_5">
     <g id="line2d_13">
      <g>
       <use xlink:href="#m82ca6935f7" x="43.239375" y="135.955362" style="stroke: #000000; stroke-width: 0.8"/>
      </g>
     </g>
     <g id="text_14">
      <!-- 0.20 -->
      <g transform="translate(16.700313 139.374659) scale(0.09 -0.09)">
       <use xlink:href="#DejaVuSerif-30"/>
       <use xlink:href="#DejaVuSerif-2e" transform="translate(63.623047 0)"/>
       <use xlink:href="#DejaVuSerif-32" transform="translate(95.410156 0)"/>
       <use xlink:href="#DejaVuSerif-30" transform="translate(159.033203 0)"/>
      </g>
     </g>
    </g>
    <g id="ytick_6">
     <g id="line2d_14">
      <g>
       <use xlink:href="#m82ca6935f7" x="43.239375" y="112.960362" style="stroke: #000000; stroke-width: 0.8"/>
      </g>
     </g>
     <g id="text_15">
      <!-- 0.25 -->
      <g transform="translate(16.700313 116.379659) scale(0.09 -0.09)">
       <use xlink:href="#DejaVuSerif-30"/>
       <use xlink:href="#DejaVuSerif-2e" transform="translate(63.623047 0)"/>
       <use xlink:href="#DejaVuSerif-32" transform="translate(95.410156 0)"/>
       <use xlink:href="#DejaVuSerif-35" transform="translate(159.033203 0)"/>
      </g>
     </g>
    </g>
    <g id="ytick_7">
     <g id="line2d_15">
      <g>
       <use xlink:href="#m82ca6935f7" x="43.239375" y="89.965362" style="stroke: #000000; stroke-width: 0.8"/>
      </g>
     </g>
     <g id="text_16">
      <!-- 0.30 -->
      <g transform="translate(16.700313 93.384659) scale(0.09 -0.09)">
       <use xlink:href="#DejaVuSerif-30"/>
       <use xlink:href="#DejaVuSerif-2e" transform="translate(63.623047 0)"/>
       <use xlink:href="#DejaVuSerif-33" transform="translate(95.410156 0)"/>
       <use xlink:href="#DejaVuSerif-30" transform="translate(159.033203 0)"/>
      </g>
     </g>
    </g>
    <g id="ytick_8">
     <g id="line2d_16">
      <g>
       <use xlink:href="#m82ca6935f7" x="43.239375" y="66.970362" style="stroke: #000000; stroke-width: 0.8"/>
      </g>
     </g>
     <g id="text_17">
      <!-- 0.35 -->
      <g transform="translate(16.700313 70.389659) scale(0.09 -0.09)">
       <use xlink:href="#DejaVuSerif-30"/>
       <use xlink:href="#DejaVuSerif-2e" transform="translate(63.623047 0)"/>
       <use xlink:href="#DejaVuSerif-33" transform="translate(95.410156 0)"/>
       <use xlink:href="#DejaVuSerif-35" transform="translate(159.033203 0)"/>
      </g>
     </g>
    </g>
    <g id="ytick_9">
     <g id="line2d_17">
      <g>
       <use xlink:href="#m82ca6935f7" x="43.239375" y="43.975362" style="stroke: #000000; stroke-width: 0.8"/>
      </g>
     </g>
     <g id="text_18">
      <!-- 0.40 -->
      <g transform="translate(16.700313 47.394659) scale(0.09 -0.09)">
       <defs>
        <path id="DejaVuSerif-34" d="M 2234 1581
L 2234 4063
L 641 1581
L 2234 1581
z
M 3609 0
L 1484 0
L 1484 331
L 2234 331
L 2234 1247
L 197 1247
L 197 1588
L 2241 4750
L 2859 4750
L 2859 1581
L 3750 1581
L 3750 1247
L 2859 1247
L 2859 331
L 3609 331
L 3609 0
z
" transform="scale(0.015625)"/>
       </defs>
       <use xlink:href="#DejaVuSerif-30"/>
       <use xlink:href="#DejaVuSerif-2e" transform="translate(63.623047 0)"/>
       <use xlink:href="#DejaVuSerif-34" transform="translate(95.410156 0)"/>
       <use xlink:href="#DejaVuSerif-30" transform="translate(159.033203 0)"/>
      </g>
     </g>
    </g>
    <g id="text_19">
     <!-- Interval termination probability -->
     <g transform="translate(10.478438 207.250331) rotate(-90) scale(0.1 -0.1)">
      <defs>
       <path id="DejaVuSerif-49" d="M 1581 331
L 2175 331
L 2175 0
L 353 0
L 353 331
L 947 331
L 947 4331
L 353 4331
L 353 4666
L 2175 4666
L 2175 4331
L 1581 4331
L 1581 331
z
" transform="scale(0.015625)"/>
       <path id="DejaVuSerif-74" d="M 691 2988
L 184 2988
L 184 3322
L 691 3322
L 691 4353
L 1269 4353
L 1269 3322
L 2350 3322
L 2350 2988
L 1269 2988
L 1269 878
Q 1269 456 1350 337
Q 1431 219 1650 219
Q 1875 219 1978 351
Q 2081 484 2088 781
L 2522 781
Q 2497 328 2275 118
Q 2053 -91 1600 -91
Q 1103 -91 897 129
Q 691 350 691 878
L 691 2988
z
" transform="scale(0.015625)"/>
       <path id="DejaVuSerif-72" d="M 3059 3328
L 3059 2497
L 2728 2497
Q 2713 2744 2591 2866
Q 2469 2988 2234 2988
Q 1809 2988 1582 2694
Q 1356 2400 1356 1850
L 1356 331
L 2022 331
L 2022 0
L 263 0
L 263 331
L 781 331
L 781 2994
L 231 2994
L 231 3322
L 1356 3322
L 1356 2731
Q 1525 3078 1790 3245
Q 2056 3413 2438 3413
Q 2578 3413 2733 3391
Q 2888 3369 3059 3328
z
" transform="scale(0.015625)"/>
       <path id="DejaVuSerif-76" d="M 1581 0
L 359 2988
L -19 2988
L -19 3322
L 1509 3322
L 1509 2988
L 978 2988
L 1913 703
L 2847 2988
L 2350 2988
L 2350 3322
L 3597 3322
L 3597 2988
L 3225 2988
L 2003 0
L 1581 0
z
" transform="scale(0.015625)"/>
       <path id="DejaVuSerif-6c" d="M 1313 331
L 1856 331
L 1856 0
L 184 0
L 184 331
L 738 331
L 738 4531
L 184 4531
L 184 4863
L 1313 4863
L 1313 331
z
" transform="scale(0.015625)"/>
       <path id="DejaVuSerif-6d" d="M 3316 2675
Q 3481 3041 3739 3227
Q 3997 3413 4341 3413
Q 4863 3413 5119 3089
Q 5375 2766 5375 2113
L 5375 331
L 5894 331
L 5894 0
L 4300 0
L 4300 331
L 4800 331
L 4800 2047
Q 4800 2556 4650 2772
Q 4500 2988 4153 2988
Q 3769 2988 3567 2697
Q 3366 2406 3366 1850
L 3366 331
L 3866 331
L 3866 0
L 2291 0
L 2291 331
L 2791 331
L 2791 2069
Q 2791 2566 2641 2777
Q 2491 2988 2144 2988
Q 1759 2988 1557 2697
Q 1356 2406 1356 1850
L 1356 331
L 1856 331
L 1856 0
L 263 0
L 263 331
L 781 331
L 781 2994
L 231 2994
L 231 3322
L 1356 3322
L 1356 2731
Q 1516 3063 1762 3238
Q 2009 3413 2322 3413
Q 2709 3413 2968 3220
Q 3228 3028 3316 2675
z
" transform="scale(0.015625)"/>
       <path id="DejaVuSerif-69" d="M 622 4353
Q 622 4497 726 4603
Q 831 4709 978 4709
Q 1122 4709 1226 4603
Q 1331 4497 1331 4353
Q 1331 4206 1228 4103
Q 1125 4000 978 4000
Q 831 4000 726 4103
Q 622 4206 622 4353
z
M 1356 331
L 1900 331
L 1900 0
L 231 0
L 231 331
L 781 331
L 781 2988
L 231 2988
L 231 3322
L 1356 3322
L 1356 331
z
" transform="scale(0.015625)"/>
       <path id="DejaVuSerif-6f" d="M 1925 219
Q 2388 219 2623 584
Q 2859 950 2859 1663
Q 2859 2375 2623 2739
Q 2388 3103 1925 3103
Q 1463 3103 1227 2739
Q 991 2375 991 1663
Q 991 950 1228 584
Q 1466 219 1925 219
z
M 1925 -91
Q 1200 -91 759 389
Q 319 869 319 1663
Q 319 2456 758 2934
Q 1197 3413 1925 3413
Q 2653 3413 3092 2934
Q 3531 2456 3531 1663
Q 3531 869 3092 389
Q 2653 -91 1925 -91
z
" transform="scale(0.015625)"/>
       <path id="DejaVuSerif-70" d="M 1313 1825
L 1313 1497
Q 1313 897 1542 583
Q 1772 269 2209 269
Q 2650 269 2876 622
Q 3103 975 3103 1663
Q 3103 2353 2876 2703
Q 2650 3053 2209 3053
Q 1772 3053 1542 2737
Q 1313 2422 1313 1825
z
M 738 2988
L 184 2988
L 184 3322
L 1313 3322
L 1313 2803
Q 1481 3116 1742 3264
Q 2003 3413 2388 3413
Q 3000 3413 3387 2928
Q 3775 2444 3775 1663
Q 3775 881 3387 395
Q 3000 -91 2388 -91
Q 2003 -91 1742 57
Q 1481 206 1313 519
L 1313 -997
L 1856 -997
L 1856 -1331
L 184 -1331
L 184 -997
L 738 -997
L 738 2988
z
" transform="scale(0.015625)"/>
       <path id="DejaVuSerif-62" d="M 738 331
L 738 4531
L 184 4531
L 184 4863
L 1313 4863
L 1313 2803
Q 1481 3116 1742 3264
Q 2003 3413 2388 3413
Q 3000 3413 3387 2928
Q 3775 2444 3775 1663
Q 3775 881 3387 395
Q 3000 -91 2388 -91
Q 2003 -91 1742 57
Q 1481 206 1313 519
L 1313 0
L 184 0
L 184 331
L 738 331
z
M 1313 1497
Q 1313 897 1542 583
Q 1772 269 2209 269
Q 2650 269 2876 622
Q 3103 975 3103 1663
Q 3103 2353 2876 2703
Q 2650 3053 2209 3053
Q 1772 3053 1542 2737
Q 1313 2422 1313 1825
L 1313 1497
z
" transform="scale(0.015625)"/>
       <path id="DejaVuSerif-79" d="M 1381 -609
L 1600 -56
L 359 2988
L -19 2988
L -19 3322
L 1509 3322
L 1509 2988
L 978 2988
L 1913 703
L 2847 2988
L 2350 2988
L 2350 3322
L 3597 3322
L 3597 2988
L 3225 2988
L 1703 -750
Q 1547 -1138 1356 -1280
Q 1166 -1422 819 -1422
Q 672 -1422 517 -1397
Q 363 -1372 206 -1325
L 206 -691
L 500 -691
Q 519 -903 608 -995
Q 697 -1088 884 -1088
Q 1056 -1088 1161 -992
Q 1266 -897 1381 -609
z
" transform="scale(0.015625)"/>
      </defs>
      <use xlink:href="#DejaVuSerif-49"/>
      <use xlink:href="#DejaVuSerif-6e" transform="translate(39.501953 0)"/>
      <use xlink:href="#DejaVuSerif-74" transform="translate(103.90625 0)"/>
      <use xlink:href="#DejaVuSerif-65" transform="translate(144.091797 0)"/>
      <use xlink:href="#DejaVuSerif-72" transform="translate(203.271484 0)"/>
      <use xlink:href="#DejaVuSerif-76" transform="translate(251.074219 0)"/>
      <use xlink:href="#DejaVuSerif-61" transform="translate(307.568359 0)"/>
      <use xlink:href="#DejaVuSerif-6c" transform="translate(367.1875 0)"/>
      <use xlink:href="#DejaVuSerif-20" transform="translate(399.169922 0)"/>
      <use xlink:href="#DejaVuSerif-74" transform="translate(430.957031 0)"/>
      <use xlink:href="#DejaVuSerif-65" transform="translate(471.142578 0)"/>
      <use xlink:href="#DejaVuSerif-72" transform="translate(530.322266 0)"/>
      <use xlink:href="#DejaVuSerif-6d" transform="translate(578.125 0)"/>
      <use xlink:href="#DejaVuSerif-69" transform="translate(672.949219 0)"/>
      <use xlink:href="#DejaVuSerif-6e" transform="translate(704.931641 0)"/>
      <use xlink:href="#DejaVuSerif-61" transform="translate(769.335938 0)"/>
      <use xlink:href="#DejaVuSerif-74" transform="translate(828.955078 0)"/>
      <use xlink:href="#DejaVuSerif-69" transform="translate(869.140625 0)"/>
      <use xlink:href="#DejaVuSerif-6f" transform="translate(901.123047 0)"/>
      <use xlink:href="#DejaVuSerif-6e" transform="translate(961.328125 0)"/>
      <use xlink:href="#DejaVuSerif-20" transform="translate(1025.732422 0)"/>
      <use xlink:href="#DejaVuSerif-70" transform="translate(1057.519531 0)"/>
      <use xlink:href="#DejaVuSerif-72" transform="translate(1121.533203 0)"/>
      <use xlink:href="#DejaVuSerif-6f" transform="translate(1169.335938 0)"/>
      <use xlink:href="#DejaVuSerif-62" transform="translate(1229.541016 0)"/>
      <use xlink:href="#DejaVuSerif-61" transform="translate(1293.554688 0)"/>
      <use xlink:href="#DejaVuSerif-62" transform="translate(1353.173828 0)"/>
      <use xlink:href="#DejaVuSerif-69" transform="translate(1417.1875 0)"/>
      <use xlink:href="#DejaVuSerif-6c" transform="translate(1449.169922 0)"/>
      <use xlink:href="#DejaVuSerif-69" transform="translate(1481.152344 0)"/>
      <use xlink:href="#DejaVuSerif-74" transform="translate(1513.134766 0)"/>
      <use xlink:href="#DejaVuSerif-79" transform="translate(1553.320312 0)"/>
     </g>
    </g>
   </g>
   <g id="line2d_18">
    <path d="M 46.150679 58.935032
L 51.973288 168.741071
L 57.795897 171.794694
L 63.618505 177.013427
L 69.441114 177.100752
L 75.263723 178.803346
L 81.086332 179.15293
L 86.90894 179.274074
L 92.731549 181.52963
L 98.554158 181.755583
L 104.376766 183.668559
L 110.199375 185.639553
L 116.021984 183.977092
L 121.844592 187.193738
L 127.667201 185.895544
L 133.48981 190.750739
L 139.312418 191.034141
L 145.135027 189.999341
L 150.957636 195.277004
L 156.780245 194.060579
L 162.602853 192.185702
L 168.425462 195.594083
L 174.248071 195.893149
L 180.070679 196.996144
L 185.893288 197.207723
L 191.715897 196.04108
L 197.538505 195.981597
L 203.361114 197.179438
L 209.183723 198.239513
L 215.006332 197.838814
L 220.82894 199.688146
L 226.651549 197.839657
L 232.474158 195.732299
L 238.296766 192.475151
L 244.119375 195.630765
" clip-path="url(#pb755442907)" style="fill: none; stroke: #d62728; stroke-width: 2; stroke-linecap: square"/>
   </g>
   <g id="line2d_19">
    <path d="M 46.150679 69.271565
L 51.973288 184.740585
L 57.795897 185.91062
L 63.618505 189.301013
L 69.441114 190.190893
L 75.263723 190.08203
L 81.086332 190.849529
L 86.90894 191.848035
L 92.731549 195.581859
L 98.554158 198.698668
L 104.376766 199.031236
L 110.199375 198.005937
L 116.021984 201.006025
L 121.844592 204.31157
L 127.667201 201.414586
L 133.48981 203.927425
L 139.312418 204.811899
L 145.135027 202.328458
L 150.957636 206.467162
L 156.780245 203.460486
L 162.602853 206.6246
L 168.425462 205.048489
L 174.248071 208.013952
L 180.070679 209.186204
L 185.893288 208.997086
L 191.715897 202.865626
L 197.538505 210.436059
L 203.361114 206.171282
L 209.183723 207.331643
L 215.006332 207.797575
L 220.82894 207.416326
L 226.651549 208.313344
L 232.474158 203.698603
L 238.296766 205.666853
L 244.119375 207.015724
" clip-path="url(#pb755442907)" style="fill: none; stroke: #1f77b4; stroke-width: 2; stroke-linecap: square"/>
   </g>
   <g id="line2d_20">
    <path d="M 46.150679 35.777781
L 51.973288 139.145983
L 57.795897 151.832863
L 63.618505 160.556974
L 69.441114 164.447816
L 75.263723 166.16971
L 81.086332 169.02605
L 86.90894 167.746496
L 92.731549 170.504629
L 98.554158 169.030144
L 104.376766 170.900249
L 110.199375 171.108488
L 116.021984 171.448035
L 121.844592 175.079557
L 127.667201 174.431764
L 133.48981 176.399356
L 139.312418 176.2347
L 145.135027 179.851383
L 150.957636 180.423498
L 156.780245 175.347757
L 162.602853 178.604609
L 168.425462 177.9044
L 174.248071 175.85267
L 180.070679 178.042643
L 185.893288 175.894702
L 191.715897 173.366188
L 197.538505 162.098392
L 203.361114 170.447862
L 209.183723 171.621077
L 215.006332 161.818661
L 220.82894 165.479807
L 226.651549 165.520362
L 232.474158 165.601809
L 238.296766 163.619845
L 244.119375 160.030665
" clip-path="url(#pb755442907)" style="fill: none; stroke: #000000; stroke-width: 2; stroke-linecap: square"/>
   </g>
   <g id="line2d_21">
    <path d="M 46.150679 70.39299
L 51.973288 108.62716
L 57.795897 152.35455
L 63.618505 158.195603
L 69.441114 161.105186
L 75.263723 167.291244
L 81.086332 167.18077
L 86.90894 168.019246
L 92.731549 169.837892
L 98.554158 168.585591
L 104.376766 171.848862
L 110.199375 170.600209
L 116.021984 173.452014
L 121.844592 172.568761
L 127.667201 174.951131
L 133.48981 177.473622
L 139.312418 176.471072
L 145.135027 177.681018
L 150.957636 181.317084
L 156.780245 178.095362
L 162.602853 180.782252
L 168.425462 176.251362
L 174.248071 178.152373
L 180.070679 177.623411
L 185.893288 168.641646
L 191.715897 174.318592
L 197.538505 168.174346
L 203.361114 169.606582
L 209.183723 163.703519
L 215.006332 170.696726
L 220.82894 164.756031
L 226.651549 163.272235
L 232.474158 169.58411
L 238.296766 171.549156
L 244.119375 162.665712
" clip-path="url(#pb755442907)" style="fill: none; stroke: #808080; stroke-width: 2; stroke-linecap: square"/>
   </g>
   <g id="patch_3">
    <path d="M 43.239375 227.935362
L 43.239375 25.579362
" style="fill: none; stroke: #000000; stroke-width: 0.8; stroke-linejoin: miter; stroke-linecap: square"/>
   </g>
   <g id="patch_4">
    <path d="M 43.239375 227.935362
L 247.030679 227.935362
" style="fill: none; stroke: #000000; stroke-width: 0.8; stroke-linejoin: miter; stroke-linecap: square"/>
   </g>
   <g id="text_20">
    <!-- A. -->
    <g transform="translate(12.670679 12.757969) scale(0.13 -0.13)">
     <defs>
      <path id="DejaVuSerif-41" d="M 1281 1691
L 2994 1691
L 2138 3909
L 1281 1691
z
M -38 0
L -38 331
L 372 331
L 2034 4666
L 2559 4666
L 4225 331
L 4684 331
L 4684 0
L 2988 0
L 2988 331
L 3506 331
L 3116 1356
L 1153 1356
L 763 331
L 1275 331
L 1275 0
L -38 0
z
" transform="scale(0.015625)"/>
     </defs>
     <use xlink:href="#DejaVuSerif-41"/>
     <use xlink:href="#DejaVuSerif-2e" transform="translate(72.216797 0)"/>
    </g>
   </g>
   <g id="legend_1">
    <g id="line2d_22">
     <path d="M 96.805398 37.059362
L 105.005398 37.059362
L 113.205398 37.059362
" style="fill: none; stroke: #d62728; stroke-width: 2; stroke-linecap: square"/>
    </g>
    <g id="text_21">
     <!-- 0.25 m s$^{-1}$ turn guard -->
     <g transform="translate(119.765398 39.929362) scale(0.082 -0.082)">
      <defs>
       <path id="Cmsy10-a1" d="M 653 1472
Q 600 1472 565 1512
Q 531 1553 531 1600
Q 531 1647 565 1687
Q 600 1728 653 1728
L 4325 1728
Q 4375 1728 4408 1687
Q 4441 1647 4441 1600
Q 4441 1553 4408 1512
Q 4375 1472 4325 1472
L 653 1472
z
" transform="scale(0.015625)"/>
       <path id="Cmr10-31" d="M 594 0
L 594 225
Q 1394 225 1394 428
L 1394 3788
Q 1063 3628 556 3628
L 556 3853
Q 1341 3853 1741 4263
L 1831 4263
Q 1853 4263 1873 4245
Q 1894 4228 1894 4206
L 1894 428
Q 1894 225 2694 225
L 2694 0
L 594 0
z
" transform="scale(0.015625)"/>
       <path id="DejaVuSerif-64" d="M 3359 331
L 3909 331
L 3909 0
L 2784 0
L 2784 519
Q 2616 206 2355 57
Q 2094 -91 1709 -91
Q 1097 -91 708 395
Q 319 881 319 1663
Q 319 2444 706 2928
Q 1094 3413 1709 3413
Q 2094 3413 2355 3264
Q 2616 3116 2784 2803
L 2784 4531
L 2241 4531
L 2241 4863
L 3359 4863
L 3359 331
z
M 2784 1497
L 2784 1825
Q 2784 2422 2554 2737
Q 2325 3053 1888 3053
Q 1444 3053 1217 2703
Q 991 2353 991 1663
Q 991 975 1217 622
Q 1444 269 1888 269
Q 2325 269 2554 583
Q 2784 897 2784 1497
z
" transform="scale(0.015625)"/>
      </defs>
      <use xlink:href="#DejaVuSerif-30" transform="translate(0 0.109375)"/>
      <use xlink:href="#DejaVuSerif-2e" transform="translate(63.623047 0.109375)"/>
      <use xlink:href="#DejaVuSerif-32" transform="translate(92.785156 0.109375)"/>
      <use xlink:href="#DejaVuSerif-35" transform="translate(156.408203 0.109375)"/>
      <use xlink:href="#DejaVuSerif-20" transform="translate(220.03125 0.109375)"/>
      <use xlink:href="#DejaVuSerif-6d" transform="translate(251.818359 0.109375)"/>
      <use xlink:href="#DejaVuSerif-20" transform="translate(346.642578 0.109375)"/>
      <use xlink:href="#DejaVuSerif-73" transform="translate(378.429688 0.109375)"/>
      <use xlink:href="#Cmsy10-a1" transform="translate(434.212188 38.373438) scale(0.7)"/>
      <use xlink:href="#Cmr10-31" transform="translate(488.59207 38.373438) scale(0.7)"/>
      <use xlink:href="#DejaVuSerif-20" transform="translate(529.969414 0.109375)"/>
      <use xlink:href="#DejaVuSerif-74" transform="translate(561.756523 0.109375)"/>
      <use xlink:href="#DejaVuSerif-75" transform="translate(601.94207 0.109375)"/>
      <use xlink:href="#DejaVuSerif-72" transform="translate(666.346367 0.109375)"/>
      <use xlink:href="#DejaVuSerif-6e" transform="translate(714.149102 0.109375)"/>
      <use xlink:href="#DejaVuSerif-20" transform="translate(778.553398 0.109375)"/>
      <use xlink:href="#DejaVuSerif-67" transform="translate(810.340508 0.109375)"/>
      <use xlink:href="#DejaVuSerif-75" transform="translate(874.35418 0.109375)"/>
      <use xlink:href="#DejaVuSerif-61" transform="translate(938.758477 0.109375)"/>
      <use xlink:href="#DejaVuSerif-72" transform="translate(998.377617 0.109375)"/>
      <use xlink:href="#DejaVuSerif-64" transform="translate(1046.180352 0.109375)"/>
     </g>
    </g>
    <g id="line2d_23">
     <path d="M 96.805398 50.015362
L 105.005398 50.015362
L 113.205398 50.015362
" style="fill: none; stroke: #1f77b4; stroke-width: 2; stroke-linecap: square"/>
    </g>
    <g id="text_22">
     <!-- 0.50 m s$^{-1}$ turn guard -->
     <g transform="translate(119.765398 52.885362) scale(0.082 -0.082)">
      <use xlink:href="#DejaVuSerif-30" transform="translate(0 0.109375)"/>
      <use xlink:href="#DejaVuSerif-2e" transform="translate(63.623047 0.109375)"/>
      <use xlink:href="#DejaVuSerif-35" transform="translate(95.410156 0.109375)"/>
      <use xlink:href="#DejaVuSerif-30" transform="translate(159.033203 0.109375)"/>
      <use xlink:href="#DejaVuSerif-20" transform="translate(222.65625 0.109375)"/>
      <use xlink:href="#DejaVuSerif-6d" transform="translate(254.443359 0.109375)"/>
      <use xlink:href="#DejaVuSerif-20" transform="translate(349.267578 0.109375)"/>
      <use xlink:href="#DejaVuSerif-73" transform="translate(381.054688 0.109375)"/>
      <use xlink:href="#Cmsy10-a1" transform="translate(436.837188 38.373438) scale(0.7)"/>
      <use xlink:href="#Cmr10-31" transform="translate(491.21707 38.373438) scale(0.7)"/>
      <use xlink:href="#DejaVuSerif-20" transform="translate(532.594414 0.109375)"/>
      <use xlink:href="#DejaVuSerif-74" transform="translate(564.381523 0.109375)"/>
      <use xlink:href="#DejaVuSerif-75" transform="translate(604.56707 0.109375)"/>
      <use xlink:href="#DejaVuSerif-72" transform="translate(668.971367 0.109375)"/>
      <use xlink:href="#DejaVuSerif-6e" transform="translate(716.774102 0.109375)"/>
      <use xlink:href="#DejaVuSerif-20" transform="translate(781.178398 0.109375)"/>
      <use xlink:href="#DejaVuSerif-67" transform="translate(812.965508 0.109375)"/>
      <use xlink:href="#DejaVuSerif-75" transform="translate(876.97918 0.109375)"/>
      <use xlink:href="#DejaVuSerif-61" transform="translate(941.383477 0.109375)"/>
      <use xlink:href="#DejaVuSerif-72" transform="translate(1001.002617 0.109375)"/>
      <use xlink:href="#DejaVuSerif-64" transform="translate(1048.805352 0.109375)"/>
     </g>
    </g>
    <g id="line2d_24">
     <path d="M 96.805398 62.232081
L 105.005398 62.232081
L 113.205398 62.232081
" style="fill: none; stroke: #000000; stroke-width: 2; stroke-linecap: square"/>
    </g>
    <g id="text_23">
     <!-- Primary segmentation -->
     <g transform="translate(119.765398 65.102081) scale(0.082 -0.082)">
      <defs>
       <path id="DejaVuSerif-50" d="M 1581 2375
L 2406 2375
Q 2872 2375 3115 2626
Q 3359 2878 3359 3353
Q 3359 3831 3115 4081
Q 2872 4331 2406 4331
L 1581 4331
L 1581 2375
z
M 353 0
L 353 331
L 947 331
L 947 4331
L 353 4331
L 353 4666
L 2559 4666
Q 3259 4666 3668 4311
Q 4078 3956 4078 3353
Q 4078 2753 3668 2397
Q 3259 2041 2559 2041
L 1581 2041
L 1581 331
L 2303 331
L 2303 0
L 353 0
z
" transform="scale(0.015625)"/>
      </defs>
      <use xlink:href="#DejaVuSerif-50"/>
      <use xlink:href="#DejaVuSerif-72" transform="translate(67.285156 0)"/>
      <use xlink:href="#DejaVuSerif-69" transform="translate(115.087891 0)"/>
      <use xlink:href="#DejaVuSerif-6d" transform="translate(147.070312 0)"/>
      <use xlink:href="#DejaVuSerif-61" transform="translate(241.894531 0)"/>
      <use xlink:href="#DejaVuSerif-72" transform="translate(301.513672 0)"/>
      <use xlink:href="#DejaVuSerif-79" transform="translate(349.316406 0)"/>
      <use xlink:href="#DejaVuSerif-20" transform="translate(405.810547 0)"/>
      <use xlink:href="#DejaVuSerif-73" transform="translate(437.597656 0)"/>
      <use xlink:href="#DejaVuSerif-65" transform="translate(488.916016 0)"/>
      <use xlink:href="#DejaVuSerif-67" transform="translate(548.095703 0)"/>
      <use xlink:href="#DejaVuSerif-6d" transform="translate(612.109375 0)"/>
      <use xlink:href="#DejaVuSerif-65" transform="translate(706.933594 0)"/>
      <use xlink:href="#DejaVuSerif-6e" transform="translate(766.113281 0)"/>
      <use xlink:href="#DejaVuSerif-74" transform="translate(830.517578 0)"/>
      <use xlink:href="#DejaVuSerif-61" transform="translate(870.703125 0)"/>
      <use xlink:href="#DejaVuSerif-74" transform="translate(930.322266 0)"/>
      <use xlink:href="#DejaVuSerif-69" transform="translate(970.507812 0)"/>
      <use xlink:href="#DejaVuSerif-6f" transform="translate(1002.490234 0)"/>
      <use xlink:href="#DejaVuSerif-6e" transform="translate(1062.695312 0)"/>
     </g>
    </g>
    <g id="line2d_25">
     <path d="M 96.805398 74.384737
L 105.005398 74.384737
L 113.205398 74.384737
" style="fill: none; stroke: #808080; stroke-width: 2; stroke-linecap: square"/>
    </g>
    <g id="text_24">
     <!-- Three-sample rolling median -->
     <g transform="translate(119.765398 77.254737) scale(0.082 -0.082)">
      <defs>
       <path id="DejaVuSerif-54" d="M 1222 0
L 1222 331
L 1819 331
L 1819 4294
L 447 4294
L 447 3566
L 63 3566
L 63 4666
L 4206 4666
L 4206 3566
L 3822 3566
L 3822 4294
L 2450 4294
L 2450 331
L 3047 331
L 3047 0
L 1222 0
z
" transform="scale(0.015625)"/>
       <path id="DejaVuSerif-68" d="M 263 0
L 263 331
L 781 331
L 781 4531
L 231 4531
L 231 4863
L 1356 4863
L 1356 2731
Q 1516 3069 1770 3241
Q 2025 3413 2363 3413
Q 2913 3413 3172 3097
Q 3431 2781 3431 2113
L 3431 331
L 3944 331
L 3944 0
L 2356 0
L 2356 331
L 2853 331
L 2853 1931
Q 2853 2541 2704 2764
Q 2556 2988 2175 2988
Q 1775 2988 1565 2697
Q 1356 2406 1356 1850
L 1356 331
L 1856 331
L 1856 0
L 263 0
z
" transform="scale(0.015625)"/>
       <path id="DejaVuSerif-2d" d="M 281 1959
L 1881 1959
L 1881 1472
L 281 1472
L 281 1959
z
" transform="scale(0.015625)"/>
      </defs>
      <use xlink:href="#DejaVuSerif-54"/>
      <use xlink:href="#DejaVuSerif-68" transform="translate(66.699219 0)"/>
      <use xlink:href="#DejaVuSerif-72" transform="translate(131.103516 0)"/>
      <use xlink:href="#DejaVuSerif-65" transform="translate(178.90625 0)"/>
      <use xlink:href="#DejaVuSerif-65" transform="translate(238.085938 0)"/>
      <use xlink:href="#DejaVuSerif-2d" transform="translate(297.265625 0)"/>
      <use xlink:href="#DejaVuSerif-73" transform="translate(331.054688 0)"/>
      <use xlink:href="#DejaVuSerif-61" transform="translate(382.373047 0)"/>
      <use xlink:href="#DejaVuSerif-6d" transform="translate(441.992188 0)"/>
      <use xlink:href="#DejaVuSerif-70" transform="translate(536.816406 0)"/>
      <use xlink:href="#DejaVuSerif-6c" transform="translate(600.830078 0)"/>
      <use xlink:href="#DejaVuSerif-65" transform="translate(632.8125 0)"/>
      <use xlink:href="#DejaVuSerif-20" transform="translate(691.992188 0)"/>
      <use xlink:href="#DejaVuSerif-72" transform="translate(723.779297 0)"/>
      <use xlink:href="#DejaVuSerif-6f" transform="translate(771.582031 0)"/>
      <use xlink:href="#DejaVuSerif-6c" transform="translate(831.787109 0)"/>
      <use xlink:href="#DejaVuSerif-6c" transform="translate(863.769531 0)"/>
      <use xlink:href="#DejaVuSerif-69" transform="translate(895.751953 0)"/>
      <use xlink:href="#DejaVuSerif-6e" transform="translate(927.734375 0)"/>
      <use xlink:href="#DejaVuSerif-67" transform="translate(992.138672 0)"/>
      <use xlink:href="#DejaVuSerif-20" transform="translate(1056.152344 0)"/>
      <use xlink:href="#DejaVuSerif-6d" transform="translate(1087.939453 0)"/>
      <use xlink:href="#DejaVuSerif-65" transform="translate(1182.763672 0)"/>
      <use xlink:href="#DejaVuSerif-64" transform="translate(1241.943359 0)"/>
      <use xlink:href="#DejaVuSerif-69" transform="translate(1305.957031 0)"/>
      <use xlink:href="#DejaVuSerif-61" transform="translate(1337.939453 0)"/>
      <use xlink:href="#DejaVuSerif-6e" transform="translate(1397.558594 0)"/>
     </g>
    </g>
   </g>
  </g>
  <g id="axes_2">
   <g id="patch_5">
    <path d="M 308.168071 227.935362
L 511.959375 227.935362
L 511.959375 25.579362
L 308.168071 25.579362
z
" style="fill: #ffffff"/>
   </g>
   <g id="matplotlib.axis_3">
    <g id="xtick_9">
     <g id="line2d_26">
      <g>
       <use xlink:href="#m67d3641d34" x="339.25488" y="227.935362" style="stroke: #000000; stroke-width: 0.8"/>
      </g>
     </g>
     <g id="text_25">
      <!-- 10 -->
      <g transform="translate(333.52863 241.273956) scale(0.09 -0.09)">
       <use xlink:href="#DejaVuSerif-31"/>
       <use xlink:href="#DejaVuSerif-30" transform="translate(63.623047 0)"/>
      </g>
     </g>
    </g>
    <g id="xtick_10">
     <g id="line2d_27">
      <g>
       <use xlink:href="#m67d3641d34" x="373.795779" y="227.935362" style="stroke: #000000; stroke-width: 0.8"/>
      </g>
     </g>
     <g id="text_26">
      <!-- 20 -->
      <g transform="translate(368.069529 241.273956) scale(0.09 -0.09)">
       <use xlink:href="#DejaVuSerif-32"/>
       <use xlink:href="#DejaVuSerif-30" transform="translate(63.623047 0)"/>
      </g>
     </g>
    </g>
    <g id="xtick_11">
     <g id="line2d_28">
      <g>
       <use xlink:href="#m67d3641d34" x="408.336678" y="227.935362" style="stroke: #000000; stroke-width: 0.8"/>
      </g>
     </g>
     <g id="text_27">
      <!-- 30 -->
      <g transform="translate(402.610428 241.273956) scale(0.09 -0.09)">
       <use xlink:href="#DejaVuSerif-33"/>
       <use xlink:href="#DejaVuSerif-30" transform="translate(63.623047 0)"/>
      </g>
     </g>
    </g>
    <g id="xtick_12">
     <g id="line2d_29">
      <g>
       <use xlink:href="#m67d3641d34" x="442.877577" y="227.935362" style="stroke: #000000; stroke-width: 0.8"/>
      </g>
     </g>
     <g id="text_28">
      <!-- 40 -->
      <g transform="translate(437.151327 241.273956) scale(0.09 -0.09)">
       <use xlink:href="#DejaVuSerif-34"/>
       <use xlink:href="#DejaVuSerif-30" transform="translate(63.623047 0)"/>
      </g>
     </g>
    </g>
    <g id="xtick_13">
     <g id="line2d_30">
      <g>
       <use xlink:href="#m67d3641d34" x="477.418476" y="227.935362" style="stroke: #000000; stroke-width: 0.8"/>
      </g>
     </g>
     <g id="text_29">
      <!-- 50 -->
      <g transform="translate(471.692226 241.273956) scale(0.09 -0.09)">
       <use xlink:href="#DejaVuSerif-35"/>
       <use xlink:href="#DejaVuSerif-30" transform="translate(63.623047 0)"/>
      </g>
     </g>
    </g>
    <g id="xtick_14">
     <g id="line2d_31">
      <g>
       <use xlink:href="#m67d3641d34" x="511.959375" y="227.935362" style="stroke: #000000; stroke-width: 0.8"/>
      </g>
     </g>
     <g id="text_30">
      <!-- 60 -->
      <g transform="translate(506.233125 241.273956) scale(0.09 -0.09)">
       <defs>
        <path id="DejaVuSerif-36" d="M 2094 219
Q 2534 219 2771 542
Q 3009 866 3009 1472
Q 3009 2078 2771 2401
Q 2534 2725 2094 2725
Q 1647 2725 1412 2412
Q 1178 2100 1178 1509
Q 1178 888 1415 553
Q 1653 219 2094 219
z
M 1075 2569
Q 1288 2803 1556 2918
Q 1825 3034 2163 3034
Q 2859 3034 3264 2615
Q 3669 2197 3669 1472
Q 3669 763 3233 336
Q 2797 -91 2069 -91
Q 1278 -91 853 498
Q 428 1088 428 2181
Q 428 3406 931 4078
Q 1434 4750 2350 4750
Q 2597 4750 2869 4703
Q 3141 4656 3425 4563
L 3425 3794
L 3072 3794
Q 3034 4109 2831 4275
Q 2628 4441 2284 4441
Q 1678 4441 1381 3981
Q 1084 3522 1075 2569
z
" transform="scale(0.015625)"/>
       </defs>
       <use xlink:href="#DejaVuSerif-36"/>
       <use xlink:href="#DejaVuSerif-30" transform="translate(63.623047 0)"/>
      </g>
     </g>
    </g>
    <g id="text_31">
     <!-- Run duration $T$ (s) -->
     <g transform="translate(364.063723 254.744112) scale(0.1 -0.1)">
      <defs>
       <path id="Cmmi10-54" d="M 294 84
Q 297 100 308 140
Q 319 181 336 203
Q 353 225 384 225
Q 934 225 1113 256
Q 1284 300 1319 441
L 2194 3956
Q 2222 4034 2222 4097
Q 2222 4147 1997 4147
L 1625 4147
Q 1197 4147 964 4015
Q 731 3884 622 3668
Q 513 3453 341 2963
Q 319 2906 275 2906
L 219 2906
Q 153 2906 153 2988
L 609 4313
Q 622 4372 672 4372
L 4453 4372
Q 4519 4372 4519 4288
L 4306 2963
Q 4306 2944 4284 2925
Q 4263 2906 4244 2906
L 4184 2906
Q 4122 2906 4122 2988
Q 4191 3441 4191 3628
Q 4191 3853 4097 3968
Q 4003 4084 3853 4115
Q 3703 4147 3463 4147
L 3084 4147
Q 2913 4147 2853 4115
Q 2794 4084 2753 3928
L 1875 416
Q 1872 403 1870 390
Q 1869 378 1863 359
Q 1863 278 1959 256
Q 2125 225 2669 225
Q 2731 225 2731 141
Q 2709 50 2696 25
Q 2684 0 2625 0
L 359 0
Q 294 0 294 84
z
" transform="scale(0.015625)"/>
      </defs>
      <use xlink:href="#DejaVuSerif-52" transform="translate(0 0.015625)"/>
      <use xlink:href="#DejaVuSerif-75" transform="translate(75.292969 0.015625)"/>
      <use xlink:href="#DejaVuSerif-6e" transform="translate(139.697266 0.015625)"/>
      <use xlink:href="#DejaVuSerif-20" transform="translate(204.101562 0.015625)"/>
      <use xlink:href="#DejaVuSerif-64" transform="translate(235.888672 0.015625)"/>
      <use xlink:href="#DejaVuSerif-75" transform="translate(299.902344 0.015625)"/>
      <use xlink:href="#DejaVuSerif-72" transform="translate(364.306641 0.015625)"/>
      <use xlink:href="#DejaVuSerif-61" transform="translate(412.109375 0.015625)"/>
      <use xlink:href="#DejaVuSerif-74" transform="translate(471.728516 0.015625)"/>
      <use xlink:href="#DejaVuSerif-69" transform="translate(511.914062 0.015625)"/>
      <use xlink:href="#DejaVuSerif-6f" transform="translate(543.896484 0.015625)"/>
      <use xlink:href="#DejaVuSerif-6e" transform="translate(604.101562 0.015625)"/>
      <use xlink:href="#DejaVuSerif-20" transform="translate(668.505859 0.015625)"/>
      <use xlink:href="#Cmmi10-54" transform="translate(700.292969 0.015625)"/>
      <use xlink:href="#DejaVuSerif-20" transform="translate(758.691406 0.015625)"/>
      <use xlink:href="#DejaVuSerif-28" transform="translate(790.478516 0.015625)"/>
      <use xlink:href="#DejaVuSerif-73" transform="translate(829.492188 0.015625)"/>
      <use xlink:href="#DejaVuSerif-29" transform="translate(880.810547 0.015625)"/>
     </g>
    </g>
   </g>
   <g id="matplotlib.axis_4">
    <g id="ytick_10">
     <g id="line2d_32">
      <g>
       <use xlink:href="#m82ca6935f7" x="308.168071" y="227.935362" style="stroke: #000000; stroke-width: 0.8"/>
      </g>
     </g>
     <g id="text_32">
      <!-- $\mathdefault{10^{-4}}$ -->
      <g transform="translate(280.608071 231.354659) scale(0.09 -0.09)">
       <defs>
        <path id="DejaVuSerif-2212" d="M 678 2259
L 4684 2259
L 4684 1753
L 678 1753
L 678 2259
z
" transform="scale(0.015625)"/>
       </defs>
       <use xlink:href="#DejaVuSerif-31" transform="translate(0 0.7125)"/>
       <use xlink:href="#DejaVuSerif-30" transform="translate(63.623047 0.7125)"/>
       <use xlink:href="#DejaVuSerif-2212" transform="translate(128.154453 37.046875) scale(0.7)"/>
       <use xlink:href="#DejaVuSerif-34" transform="translate(186.806797 37.046875) scale(0.7)"/>
      </g>
     </g>
    </g>
    <g id="ytick_11">
     <g id="line2d_33">
      <g>
       <use xlink:href="#m82ca6935f7" x="308.168071" y="177.612937" style="stroke: #000000; stroke-width: 0.8"/>
      </g>
     </g>
     <g id="text_33">
      <!-- $\mathdefault{10^{-3}}$ -->
      <g transform="translate(280.608071 181.032234) scale(0.09 -0.09)">
       <use xlink:href="#DejaVuSerif-31" transform="translate(0 0.7125)"/>
       <use xlink:href="#DejaVuSerif-30" transform="translate(63.623047 0.7125)"/>
       <use xlink:href="#DejaVuSerif-2212" transform="translate(128.154453 37.046875) scale(0.7)"/>
       <use xlink:href="#DejaVuSerif-33" transform="translate(186.806797 37.046875) scale(0.7)"/>
      </g>
     </g>
    </g>
    <g id="ytick_12">
     <g id="line2d_34">
      <g>
       <use xlink:href="#m82ca6935f7" x="308.168071" y="127.290511" style="stroke: #000000; stroke-width: 0.8"/>
      </g>
     </g>
     <g id="text_34">
      <!-- $\mathdefault{10^{-2}}$ -->
      <g transform="translate(280.608071 130.709808) scale(0.09 -0.09)">
       <use xlink:href="#DejaVuSerif-31" transform="translate(0 0.7125)"/>
       <use xlink:href="#DejaVuSerif-30" transform="translate(63.623047 0.7125)"/>
       <use xlink:href="#DejaVuSerif-2212" transform="translate(128.154453 37.046875) scale(0.7)"/>
       <use xlink:href="#DejaVuSerif-32" transform="translate(186.806797 37.046875) scale(0.7)"/>
      </g>
     </g>
    </g>
    <g id="ytick_13">
     <g id="line2d_35">
      <g>
       <use xlink:href="#m82ca6935f7" x="308.168071" y="76.968085" style="stroke: #000000; stroke-width: 0.8"/>
      </g>
     </g>
     <g id="text_35">
      <!-- $\mathdefault{10^{-1}}$ -->
      <g transform="translate(280.608071 80.387382) scale(0.09 -0.09)">
       <use xlink:href="#DejaVuSerif-31" transform="translate(0 0.7125)"/>
       <use xlink:href="#DejaVuSerif-30" transform="translate(63.623047 0.7125)"/>
       <use xlink:href="#DejaVuSerif-2212" transform="translate(128.154453 37.046875) scale(0.7)"/>
       <use xlink:href="#DejaVuSerif-31" transform="translate(186.806797 37.046875) scale(0.7)"/>
      </g>
     </g>
    </g>
    <g id="ytick_14">
     <g id="line2d_36">
      <g>
       <use xlink:href="#m82ca6935f7" x="308.168071" y="26.645659" style="stroke: #000000; stroke-width: 0.8"/>
      </g>
     </g>
     <g id="text_36">
      <!-- $\mathdefault{10^{0}}$ -->
      <g transform="translate(285.828071 30.064956) scale(0.09 -0.09)">
       <use xlink:href="#DejaVuSerif-31" transform="translate(0 0.7125)"/>
       <use xlink:href="#DejaVuSerif-30" transform="translate(63.623047 0.7125)"/>
       <use xlink:href="#DejaVuSerif-30" transform="translate(128.154453 37.046875) scale(0.7)"/>
      </g>
     </g>
    </g>
    <g id="ytick_15">
     <g id="line2d_37">
      <defs>
       <path id="m01f8b9b206" d="M 0 0
L -2 0
" style="stroke: #000000; stroke-width: 0.6"/>
      </defs>
      <g>
       <use xlink:href="#m01f8b9b206" x="308.168071" y="212.786803" style="stroke: #000000; stroke-width: 0.6"/>
      </g>
     </g>
    </g>
    <g id="ytick_16">
     <g id="line2d_38">
      <g>
       <use xlink:href="#m01f8b9b206" x="308.168071" y="203.925464" style="stroke: #000000; stroke-width: 0.6"/>
      </g>
     </g>
    </g>
    <g id="ytick_17">
     <g id="line2d_39">
      <g>
       <use xlink:href="#m01f8b9b206" x="308.168071" y="197.638243" style="stroke: #000000; stroke-width: 0.6"/>
      </g>
     </g>
    </g>
    <g id="ytick_18">
     <g id="line2d_40">
      <g>
       <use xlink:href="#m01f8b9b206" x="308.168071" y="192.761496" style="stroke: #000000; stroke-width: 0.6"/>
      </g>
     </g>
    </g>
    <g id="ytick_19">
     <g id="line2d_41">
      <g>
       <use xlink:href="#m01f8b9b206" x="308.168071" y="188.776904" style="stroke: #000000; stroke-width: 0.6"/>
      </g>
     </g>
    </g>
    <g id="ytick_20">
     <g id="line2d_42">
      <g>
       <use xlink:href="#m01f8b9b206" x="308.168071" y="185.407979" style="stroke: #000000; stroke-width: 0.6"/>
      </g>
     </g>
    </g>
    <g id="ytick_21">
     <g id="line2d_43">
      <g>
       <use xlink:href="#m01f8b9b206" x="308.168071" y="182.489684" style="stroke: #000000; stroke-width: 0.6"/>
      </g>
     </g>
    </g>
    <g id="ytick_22">
     <g id="line2d_44">
      <g>
       <use xlink:href="#m01f8b9b206" x="308.168071" y="179.915565" style="stroke: #000000; stroke-width: 0.6"/>
      </g>
     </g>
    </g>
    <g id="ytick_23">
     <g id="line2d_45">
      <g>
       <use xlink:href="#m01f8b9b206" x="308.168071" y="162.464377" style="stroke: #000000; stroke-width: 0.6"/>
      </g>
     </g>
    </g>
    <g id="ytick_24">
     <g id="line2d_46">
      <g>
       <use xlink:href="#m01f8b9b206" x="308.168071" y="153.603038" style="stroke: #000000; stroke-width: 0.6"/>
      </g>
     </g>
    </g>
    <g id="ytick_25">
     <g id="line2d_47">
      <g>
       <use xlink:href="#m01f8b9b206" x="308.168071" y="147.315818" style="stroke: #000000; stroke-width: 0.6"/>
      </g>
     </g>
    </g>
    <g id="ytick_26">
     <g id="line2d_48">
      <g>
       <use xlink:href="#m01f8b9b206" x="308.168071" y="142.439071" style="stroke: #000000; stroke-width: 0.6"/>
      </g>
     </g>
    </g>
    <g id="ytick_27">
     <g id="line2d_49">
      <g>
       <use xlink:href="#m01f8b9b206" x="308.168071" y="138.454478" style="stroke: #000000; stroke-width: 0.6"/>
      </g>
     </g>
    </g>
    <g id="ytick_28">
     <g id="line2d_50">
      <g>
       <use xlink:href="#m01f8b9b206" x="308.168071" y="135.085553" style="stroke: #000000; stroke-width: 0.6"/>
      </g>
     </g>
    </g>
    <g id="ytick_29">
     <g id="line2d_51">
      <g>
       <use xlink:href="#m01f8b9b206" x="308.168071" y="132.167258" style="stroke: #000000; stroke-width: 0.6"/>
      </g>
     </g>
    </g>
    <g id="ytick_30">
     <g id="line2d_52">
      <g>
       <use xlink:href="#m01f8b9b206" x="308.168071" y="129.593139" style="stroke: #000000; stroke-width: 0.6"/>
      </g>
     </g>
    </g>
    <g id="ytick_31">
     <g id="line2d_53">
      <g>
       <use xlink:href="#m01f8b9b206" x="308.168071" y="112.141951" style="stroke: #000000; stroke-width: 0.6"/>
      </g>
     </g>
    </g>
    <g id="ytick_32">
     <g id="line2d_54">
      <g>
       <use xlink:href="#m01f8b9b206" x="308.168071" y="103.280612" style="stroke: #000000; stroke-width: 0.6"/>
      </g>
     </g>
    </g>
    <g id="ytick_33">
     <g id="line2d_55">
      <g>
       <use xlink:href="#m01f8b9b206" x="308.168071" y="96.993392" style="stroke: #000000; stroke-width: 0.6"/>
      </g>
     </g>
    </g>
    <g id="ytick_34">
     <g id="line2d_56">
      <g>
       <use xlink:href="#m01f8b9b206" x="308.168071" y="92.116645" style="stroke: #000000; stroke-width: 0.6"/>
      </g>
     </g>
    </g>
    <g id="ytick_35">
     <g id="line2d_57">
      <g>
       <use xlink:href="#m01f8b9b206" x="308.168071" y="88.132052" style="stroke: #000000; stroke-width: 0.6"/>
      </g>
     </g>
    </g>
    <g id="ytick_36">
     <g id="line2d_58">
      <g>
       <use xlink:href="#m01f8b9b206" x="308.168071" y="84.763128" style="stroke: #000000; stroke-width: 0.6"/>
      </g>
     </g>
    </g>
    <g id="ytick_37">
     <g id="line2d_59">
      <g>
       <use xlink:href="#m01f8b9b206" x="308.168071" y="81.844832" style="stroke: #000000; stroke-width: 0.6"/>
      </g>
     </g>
    </g>
    <g id="ytick_38">
     <g id="line2d_60">
      <g>
       <use xlink:href="#m01f8b9b206" x="308.168071" y="79.270713" style="stroke: #000000; stroke-width: 0.6"/>
      </g>
     </g>
    </g>
    <g id="ytick_39">
     <g id="line2d_61">
      <g>
       <use xlink:href="#m01f8b9b206" x="308.168071" y="61.819526" style="stroke: #000000; stroke-width: 0.6"/>
      </g>
     </g>
    </g>
    <g id="ytick_40">
     <g id="line2d_62">
      <g>
       <use xlink:href="#m01f8b9b206" x="308.168071" y="52.958186" style="stroke: #000000; stroke-width: 0.6"/>
      </g>
     </g>
    </g>
    <g id="ytick_41">
     <g id="line2d_63">
      <g>
       <use xlink:href="#m01f8b9b206" x="308.168071" y="46.670966" style="stroke: #000000; stroke-width: 0.6"/>
      </g>
     </g>
    </g>
    <g id="ytick_42">
     <g id="line2d_64">
      <g>
       <use xlink:href="#m01f8b9b206" x="308.168071" y="41.794219" style="stroke: #000000; stroke-width: 0.6"/>
      </g>
     </g>
    </g>
    <g id="ytick_43">
     <g id="line2d_65">
      <g>
       <use xlink:href="#m01f8b9b206" x="308.168071" y="37.809627" style="stroke: #000000; stroke-width: 0.6"/>
      </g>
     </g>
    </g>
    <g id="ytick_44">
     <g id="line2d_66">
      <g>
       <use xlink:href="#m01f8b9b206" x="308.168071" y="34.440702" style="stroke: #000000; stroke-width: 0.6"/>
      </g>
     </g>
    </g>
    <g id="ytick_45">
     <g id="line2d_67">
      <g>
       <use xlink:href="#m01f8b9b206" x="308.168071" y="31.522406" style="stroke: #000000; stroke-width: 0.6"/>
      </g>
     </g>
    </g>
    <g id="ytick_46">
     <g id="line2d_68">
      <g>
       <use xlink:href="#m01f8b9b206" x="308.168071" y="28.948287" style="stroke: #000000; stroke-width: 0.6"/>
      </g>
     </g>
    </g>
    <g id="text_37">
     <!-- $P(T \geq t)$ -->
     <g transform="translate(274.108071 144.257362) rotate(-90) scale(0.1 -0.1)">
      <defs>
       <path id="Cmmi10-50" d="M 313 0
Q 250 0 250 84
Q 253 100 262 139
Q 272 178 289 201
Q 306 225 331 225
Q 722 225 878 269
Q 959 297 997 441
L 1875 3956
Q 1888 4019 1888 4044
Q 1888 4113 1813 4122
Q 1691 4147 1350 4147
Q 1288 4147 1288 4231
Q 1291 4247 1300 4286
Q 1309 4325 1326 4348
Q 1344 4372 1369 4372
L 3578 4372
Q 3881 4372 4165 4264
Q 4450 4156 4631 3934
Q 4813 3713 4813 3397
Q 4813 2991 4527 2672
Q 4241 2353 3814 2175
Q 3388 1997 2988 1997
L 1947 1997
L 1556 416
Q 1544 353 1544 325
Q 1544 300 1551 283
Q 1559 266 1573 261
Q 1588 256 1619 250
Q 1741 225 2081 225
Q 2144 225 2144 141
Q 2122 50 2109 25
Q 2097 0 2034 0
L 313 0
z
M 1978 2188
L 2875 2188
Q 3497 2188 3822 2522
Q 3988 2688 4092 3000
Q 4197 3313 4197 3566
Q 4197 3881 3956 4014
Q 3716 4147 3359 4147
L 2747 4147
Q 2572 4147 2515 4117
Q 2459 4088 2413 3928
L 1978 2188
z
" transform="scale(0.015625)"/>
       <path id="Cmr10-28" d="M 1984 -1588
Q 1628 -1306 1370 -942
Q 1113 -578 948 -165
Q 784 247 703 697
Q 622 1147 622 1600
Q 622 2059 703 2509
Q 784 2959 951 3375
Q 1119 3791 1378 4153
Q 1638 4516 1984 4788
Q 1984 4800 2016 4800
L 2075 4800
Q 2094 4800 2109 4783
Q 2125 4766 2125 4744
Q 2125 4716 2113 4703
Q 1800 4397 1592 4047
Q 1384 3697 1257 3301
Q 1131 2906 1075 2482
Q 1019 2059 1019 1600
Q 1019 -434 2106 -1491
Q 2125 -1509 2125 -1544
Q 2125 -1559 2108 -1579
Q 2091 -1600 2075 -1600
L 2016 -1600
Q 1984 -1600 1984 -1588
z
" transform="scale(0.015625)"/>
       <path id="Cmsy10-b8" d="M 653 -878
Q 600 -878 565 -837
Q 531 -797 531 -750
Q 531 -697 565 -659
Q 600 -622 653 -622
L 4325 -622
Q 4375 -622 4408 -659
Q 4441 -697 4441 -750
Q 4441 -797 4408 -837
Q 4375 -878 4325 -878
L 653 -878
z
M 531 494
Q 531 572 616 616
L 4013 2222
L 594 3834
Q 531 3863 531 3944
Q 531 3991 568 4031
Q 606 4072 659 4072
Q 691 4072 709 4063
L 4384 2328
Q 4441 2300 4441 2222
Q 4441 2144 4366 2100
L 709 378
Q 691 366 659 366
Q 606 366 568 403
Q 531 441 531 494
z
" transform="scale(0.015625)"/>
       <path id="Cmmi10-74" d="M 397 519
Q 397 613 416 697
L 878 2534
L 206 2534
Q 141 2534 141 2619
Q 166 2759 225 2759
L 934 2759
L 1191 3803
Q 1216 3888 1291 3947
Q 1366 4006 1459 4006
Q 1541 4006 1595 3957
Q 1650 3909 1650 3828
Q 1650 3809 1648 3798
Q 1647 3788 1644 3775
L 1388 2759
L 2047 2759
Q 2113 2759 2113 2675
Q 2109 2659 2100 2621
Q 2091 2584 2075 2559
Q 2059 2534 2028 2534
L 1331 2534
L 872 684
Q 825 503 825 372
Q 825 97 1013 97
Q 1294 97 1511 361
Q 1728 625 1844 941
Q 1869 978 1894 978
L 1972 978
Q 1997 978 2012 961
Q 2028 944 2028 922
Q 2028 909 2022 903
Q 1881 516 1612 222
Q 1344 -72 997 -72
Q 744 -72 570 93
Q 397 259 397 519
z
" transform="scale(0.015625)"/>
       <path id="Cmr10-29" d="M 416 -1600
Q 359 -1600 359 -1544
Q 359 -1516 372 -1503
Q 1466 -434 1466 1600
Q 1466 3634 384 4691
Q 359 4706 359 4744
Q 359 4766 376 4783
Q 394 4800 416 4800
L 475 4800
Q 494 4800 506 4788
Q 966 4425 1272 3906
Q 1578 3388 1720 2800
Q 1863 2213 1863 1600
Q 1863 1147 1786 708
Q 1709 269 1542 -157
Q 1375 -584 1119 -945
Q 863 -1306 506 -1588
Q 494 -1600 475 -1600
L 416 -1600
z
" transform="scale(0.015625)"/>
      </defs>
      <use xlink:href="#Cmmi10-50"/>
      <use xlink:href="#Cmr10-28" transform="translate(64.208984 0)"/>
      <use xlink:href="#Cmmi10-54" transform="translate(103.027344 0)"/>
      <use xlink:href="#Cmsy10-b8" transform="translate(178.984375 0)"/>
      <use xlink:href="#Cmmi10-74" transform="translate(274.228516 0)"/>
      <use xlink:href="#Cmr10-29" transform="translate(310.3125 0)"/>
     </g>
    </g>
   </g>
   <g id="line2d_69">
    <path d="M 308.168071 26.645659
L 311.622161 36.666714
L 315.07625 39.687922
L 318.53034 42.545566
L 321.98443 45.116592
L 325.43852 47.681343
L 328.89261 50.157247
L 332.3467 52.619889
L 335.80079 55.070773
L 339.25488 57.404755
L 342.70897 59.721583
L 346.16306 61.947287
L 349.61715 64.058272
L 353.071239 66.265155
L 356.525329 68.295499
L 359.979419 70.397352
L 363.433509 72.258455
L 366.887599 74.098477
L 370.341689 75.984329
L 373.795779 77.603603
L 377.249869 79.301291
L 380.703959 81.069802
L 384.158049 82.675334
L 387.612138 84.260064
L 391.066228 85.795879
L 394.520318 87.34408
L 397.974408 88.930731
L 401.428498 90.51307
L 404.882588 92.034938
L 408.336678 93.493725
L 411.790768 94.983362
L 415.244858 96.368682
L 418.698948 97.847792
L 422.153037 99.44718
L 425.607127 101.228675
L 429.061217 102.835408
L 432.515307 104.375441
L 435.969397 105.945517
L 439.423487 107.450865
L 442.877577 109.067623
L 446.331667 110.491418
L 449.785757 112.014475
L 453.239847 113.406668
L 456.693937 114.945838
L 460.148026 116.51724
L 463.602116 117.552659
L 467.056206 118.919976
L 470.510296 120.412126
L 473.964386 121.797994
L 477.418476 123.201315
L 480.872566 124.41687
L 484.326656 126.005486
L 487.780746 127.5319
L 491.234836 129.782923
L 494.688925 131.891691
L 498.143015 133.057554
L 501.597105 134.416196
L 505.051195 135.661631
L 508.505285 137.343596
L 511.959375 138.695867
L 515.413465 139.890413
L 518.867555 140.555248
L 521.565625 141.573716
" clip-path="url(#pcf49190835)" style="fill: none; stroke: #d62728; stroke-width: 2; stroke-linecap: square"/>
   </g>
   <g id="line2d_70">
    <path d="M 308.168071 26.645659
L 311.622161 35.906686
L 315.07625 38.071711
L 318.53034 40.17903
L 321.98443 42.102392
L 325.43852 43.977039
L 328.89261 45.859296
L 332.3467 47.705981
L 335.80079 49.501904
L 339.25488 51.102583
L 342.70897 52.542658
L 346.16306 53.973541
L 349.61715 55.446825
L 353.071239 56.776689
L 356.525329 57.935055
L 359.979419 59.239389
L 363.433509 60.424314
L 366.887599 61.565646
L 370.341689 62.825057
L 373.795779 63.873683
L 377.249869 65.081083
L 380.703959 66.117999
L 384.158049 67.242607
L 387.612138 68.219828
L 391.066228 69.144219
L 394.520318 70.088894
L 397.974408 71.330225
L 401.428498 72.183688
L 404.882588 73.249137
L 408.336678 74.257063
L 411.790768 75.242107
L 415.244858 76.246412
L 418.698948 77.19934
L 422.153037 78.382545
L 425.607127 79.475126
L 429.061217 80.492561
L 432.515307 81.481709
L 435.969397 82.463414
L 439.423487 83.595846
L 442.877577 84.89103
L 446.331667 85.904826
L 449.785757 86.812869
L 453.239847 87.957121
L 456.693937 89.054262
L 460.148026 90.055227
L 463.602116 90.983687
L 467.056206 91.606989
L 470.510296 92.605353
L 473.964386 93.696843
L 477.418476 94.686895
L 480.872566 95.723935
L 484.326656 96.708244
L 487.780746 97.811894
L 491.234836 98.878191
L 494.688925 99.999193
L 498.143015 100.947756
L 501.597105 102.13875
L 505.051195 103.140602
L 508.505285 103.899194
L 511.959375 104.785319
L 515.413465 105.866693
L 518.867555 106.921116
L 521.565625 107.537951
" clip-path="url(#pcf49190835)" style="fill: none; stroke: #1f77b4; stroke-width: 2; stroke-linecap: square"/>
   </g>
   <g id="line2d_71">
    <path d="M 308.168071 26.645659
L 311.622161 38.478406
L 315.07625 43.177783
L 318.53034 47.14397
L 321.98443 50.614581
L 325.43852 53.86554
L 328.89261 57.023707
L 332.3467 60.029451
L 335.80079 63.10159
L 339.25488 66.026289
L 342.70897 69.02607
L 346.16306 71.93224
L 349.61715 74.817524
L 353.071239 77.694511
L 356.525329 80.370014
L 359.979419 83.09372
L 363.433509 85.709836
L 366.887599 88.326618
L 370.341689 90.74009
L 373.795779 93.12978
L 377.249869 95.820633
L 380.703959 98.308683
L 384.158049 100.853726
L 387.612138 103.490978
L 391.066228 106.024303
L 394.520318 108.688832
L 397.974408 111.479561
L 401.428498 114.873813
L 404.882588 117.792108
L 408.336678 120.64678
L 411.790768 124.038819
L 415.244858 127.228606
L 418.698948 130.416162
L 422.153037 133.641068
L 425.607127 137.030937
L 429.061217 140.522435
L 432.515307 143.399796
L 435.969397 146.790543
L 439.423487 150.531965
L 442.877577 154.607429
L 446.331667 157.401196
L 449.785757 160.319491
L 453.239847 163.359767
L 456.693937 166.512307
L 460.148026 172.058617
L 463.602116 176.043209
L 467.056206 182.040958
L 470.510296 184.904549
L 473.964386 188.200745
L 477.418476 190.902298
L 480.872566 193.985536
L 484.326656 196.809426
L 487.780746 202.846875
L 491.234836 207.232483
L 494.688925 216.093822
L 498.143015 217.995434
L 501.597105 217.995434
L 505.051195 222.381043
L 508.505285 224.955162
L 511.959375 227.873457
L 515.413465 235.226974
L 518.867555 235.226974
L 521.565625 243.94741
" clip-path="url(#pcf49190835)" style="fill: none; stroke: #000000; stroke-width: 2; stroke-linecap: square"/>
   </g>
   <g id="line2d_72">
    <path d="M 308.168071 26.645659
L 311.622161 35.818407
L 315.07625 42.395895
L 318.53034 46.333944
L 321.98443 49.936449
L 325.43852 53.373621
L 328.89261 56.470362
L 332.3467 59.575579
L 335.80079 62.63457
L 339.25488 65.591789
L 342.70897 68.622505
L 346.16306 71.474915
L 349.61715 74.384938
L 353.071239 77.147214
L 356.525329 79.965477
L 359.979419 82.653157
L 363.433509 85.212057
L 366.887599 87.816295
L 370.341689 90.345251
L 373.795779 92.707674
L 377.249869 95.236932
L 380.703959 97.609383
L 384.158049 100.233513
L 387.612138 102.747867
L 391.066228 105.303562
L 394.520318 108.374605
L 397.974408 111.099117
L 401.428498 114.176743
L 404.882588 117.140776
L 408.336678 120.428456
L 411.790768 123.360271
L 415.244858 126.589893
L 418.698948 129.901409
L 422.153037 132.908492
L 425.607127 135.767058
L 429.061217 139.112137
L 432.515307 142.02249
L 435.969397 145.380829
L 439.423487 148.479787
L 442.877577 151.891439
L 446.331667 154.767007
L 449.785757 158.615432
L 453.239847 162.143302
L 456.693937 164.857452
L 460.148026 169.023412
L 463.602116 172.06695
L 467.056206 175.603989
L 470.510296 180.554695
L 473.964386 185.064126
L 477.418476 190.752549
L 480.872566 193.252959
L 484.326656 200.212686
L 487.780746 201.142816
L 491.234836 203.130982
L 494.688925 207.749089
L 498.143015 211.992321
L 501.597105 211.992321
L 505.051195 215.361246
L 508.505285 215.361246
L 511.959375 219.345838
L 515.413465 224.222585
L 518.867555 227.14088
L 521.565625 232.884884
" clip-path="url(#pcf49190835)" style="fill: none; stroke: #808080; stroke-width: 2; stroke-linecap: square"/>
   </g>
   <g id="patch_6">
    <path d="M 308.168071 227.935362
L 308.168071 25.579362
" style="fill: none; stroke: #000000; stroke-width: 0.8; stroke-linejoin: miter; stroke-linecap: square"/>
   </g>
   <g id="patch_7">
    <path d="M 308.168071 227.935362
L 511.959375 227.935362
" style="fill: none; stroke: #000000; stroke-width: 0.8; stroke-linejoin: miter; stroke-linecap: square"/>
   </g>
   <g id="text_38">
    <!-- B. -->
    <g transform="translate(277.599375 12.757969) scale(0.13 -0.13)">
     <defs>
      <path id="DejaVuSerif-42" d="M 1581 331
L 2516 331
Q 3078 331 3337 575
Q 3597 819 3597 1350
Q 3597 1878 3339 2120
Q 3081 2363 2516 2363
L 1581 2363
L 1581 331
z
M 1581 2694
L 2375 2694
Q 2888 2694 3123 2891
Q 3359 3088 3359 3513
Q 3359 3941 3123 4136
Q 2888 4331 2375 4331
L 1581 4331
L 1581 2694
z
M 353 0
L 353 331
L 947 331
L 947 4331
L 353 4331
L 353 4666
L 2656 4666
Q 3363 4666 3720 4377
Q 4078 4088 4078 3513
Q 4078 3097 3829 2850
Q 3581 2603 3103 2547
Q 3697 2472 4005 2167
Q 4313 1863 4313 1350
Q 4313 656 3875 328
Q 3438 0 2509 0
L 353 0
z
" transform="scale(0.015625)"/>
     </defs>
     <use xlink:href="#DejaVuSerif-42"/>
     <use xlink:href="#DejaVuSerif-2e" transform="translate(73.486328 0)"/>
    </g>
   </g>
   <g id="legend_2">
    <g id="line2d_73">
     <path d="M 315.548071 178.53805
L 323.748071 178.53805
L 331.948071 178.53805
" style="fill: none; stroke: #d62728; stroke-width: 2; stroke-linecap: square"/>
    </g>
    <g id="text_39">
     <!-- 0.25 m s$^{-1}$ turn guard -->
     <g transform="translate(338.508071 181.40805) scale(0.082 -0.082)">
      <use xlink:href="#DejaVuSerif-30" transform="translate(0 0.109375)"/>
      <use xlink:href="#DejaVuSerif-2e" transform="translate(63.623047 0.109375)"/>
      <use xlink:href="#DejaVuSerif-32" transform="translate(92.785156 0.109375)"/>
      <use xlink:href="#DejaVuSerif-35" transform="translate(156.408203 0.109375)"/>
      <use xlink:href="#DejaVuSerif-20" transform="translate(220.03125 0.109375)"/>
      <use xlink:href="#DejaVuSerif-6d" transform="translate(251.818359 0.109375)"/>
      <use xlink:href="#DejaVuSerif-20" transform="translate(346.642578 0.109375)"/>
      <use xlink:href="#DejaVuSerif-73" transform="translate(378.429688 0.109375)"/>
      <use xlink:href="#Cmsy10-a1" transform="translate(434.212188 38.373438) scale(0.7)"/>
      <use xlink:href="#Cmr10-31" transform="translate(488.59207 38.373438) scale(0.7)"/>
      <use xlink:href="#DejaVuSerif-20" transform="translate(529.969414 0.109375)"/>
      <use xlink:href="#DejaVuSerif-74" transform="translate(561.756523 0.109375)"/>
      <use xlink:href="#DejaVuSerif-75" transform="translate(601.94207 0.109375)"/>
      <use xlink:href="#DejaVuSerif-72" transform="translate(666.346367 0.109375)"/>
      <use xlink:href="#DejaVuSerif-6e" transform="translate(714.149102 0.109375)"/>
      <use xlink:href="#DejaVuSerif-20" transform="translate(778.553398 0.109375)"/>
      <use xlink:href="#DejaVuSerif-67" transform="translate(810.340508 0.109375)"/>
      <use xlink:href="#DejaVuSerif-75" transform="translate(874.35418 0.109375)"/>
      <use xlink:href="#DejaVuSerif-61" transform="translate(938.758477 0.109375)"/>
      <use xlink:href="#DejaVuSerif-72" transform="translate(998.377617 0.109375)"/>
      <use xlink:href="#DejaVuSerif-64" transform="translate(1046.180352 0.109375)"/>
     </g>
    </g>
    <g id="line2d_74">
     <path d="M 315.548071 191.49405
L 323.748071 191.49405
L 331.948071 191.49405
" style="fill: none; stroke: #1f77b4; stroke-width: 2; stroke-linecap: square"/>
    </g>
    <g id="text_40">
     <!-- 0.50 m s$^{-1}$ turn guard -->
     <g transform="translate(338.508071 194.36405) scale(0.082 -0.082)">
      <use xlink:href="#DejaVuSerif-30" transform="translate(0 0.109375)"/>
      <use xlink:href="#DejaVuSerif-2e" transform="translate(63.623047 0.109375)"/>
      <use xlink:href="#DejaVuSerif-35" transform="translate(95.410156 0.109375)"/>
      <use xlink:href="#DejaVuSerif-30" transform="translate(159.033203 0.109375)"/>
      <use xlink:href="#DejaVuSerif-20" transform="translate(222.65625 0.109375)"/>
      <use xlink:href="#DejaVuSerif-6d" transform="translate(254.443359 0.109375)"/>
      <use xlink:href="#DejaVuSerif-20" transform="translate(349.267578 0.109375)"/>
      <use xlink:href="#DejaVuSerif-73" transform="translate(381.054688 0.109375)"/>
      <use xlink:href="#Cmsy10-a1" transform="translate(436.837188 38.373438) scale(0.7)"/>
      <use xlink:href="#Cmr10-31" transform="translate(491.21707 38.373438) scale(0.7)"/>
      <use xlink:href="#DejaVuSerif-20" transform="translate(532.594414 0.109375)"/>
      <use xlink:href="#DejaVuSerif-74" transform="translate(564.381523 0.109375)"/>
      <use xlink:href="#DejaVuSerif-75" transform="translate(604.56707 0.109375)"/>
      <use xlink:href="#DejaVuSerif-72" transform="translate(668.971367 0.109375)"/>
      <use xlink:href="#DejaVuSerif-6e" transform="translate(716.774102 0.109375)"/>
      <use xlink:href="#DejaVuSerif-20" transform="translate(781.178398 0.109375)"/>
      <use xlink:href="#DejaVuSerif-67" transform="translate(812.965508 0.109375)"/>
      <use xlink:href="#DejaVuSerif-75" transform="translate(876.97918 0.109375)"/>
      <use xlink:href="#DejaVuSerif-61" transform="translate(941.383477 0.109375)"/>
      <use xlink:href="#DejaVuSerif-72" transform="translate(1001.002617 0.109375)"/>
      <use xlink:href="#DejaVuSerif-64" transform="translate(1048.805352 0.109375)"/>
     </g>
    </g>
    <g id="line2d_75">
     <path d="M 315.548071 203.710769
L 323.748071 203.710769
L 331.948071 203.710769
" style="fill: none; stroke: #000000; stroke-width: 2; stroke-linecap: square"/>
    </g>
    <g id="text_41">
     <!-- Primary segmentation -->
     <g transform="translate(338.508071 206.580769) scale(0.082 -0.082)">
      <use xlink:href="#DejaVuSerif-50"/>
      <use xlink:href="#DejaVuSerif-72" transform="translate(67.285156 0)"/>
      <use xlink:href="#DejaVuSerif-69" transform="translate(115.087891 0)"/>
      <use xlink:href="#DejaVuSerif-6d" transform="translate(147.070312 0)"/>
      <use xlink:href="#DejaVuSerif-61" transform="translate(241.894531 0)"/>
      <use xlink:href="#DejaVuSerif-72" transform="translate(301.513672 0)"/>
      <use xlink:href="#DejaVuSerif-79" transform="translate(349.316406 0)"/>
      <use xlink:href="#DejaVuSerif-20" transform="translate(405.810547 0)"/>
      <use xlink:href="#DejaVuSerif-73" transform="translate(437.597656 0)"/>
      <use xlink:href="#DejaVuSerif-65" transform="translate(488.916016 0)"/>
      <use xlink:href="#DejaVuSerif-67" transform="translate(548.095703 0)"/>
      <use xlink:href="#DejaVuSerif-6d" transform="translate(612.109375 0)"/>
      <use xlink:href="#DejaVuSerif-65" transform="translate(706.933594 0)"/>
      <use xlink:href="#DejaVuSerif-6e" transform="translate(766.113281 0)"/>
      <use xlink:href="#DejaVuSerif-74" transform="translate(830.517578 0)"/>
      <use xlink:href="#DejaVuSerif-61" transform="translate(870.703125 0)"/>
      <use xlink:href="#DejaVuSerif-74" transform="translate(930.322266 0)"/>
      <use xlink:href="#DejaVuSerif-69" transform="translate(970.507812 0)"/>
      <use xlink:href="#DejaVuSerif-6f" transform="translate(1002.490234 0)"/>
      <use xlink:href="#DejaVuSerif-6e" transform="translate(1062.695312 0)"/>
     </g>
    </g>
    <g id="line2d_76">
     <path d="M 315.548071 215.863425
L 323.748071 215.863425
L 331.948071 215.863425
" style="fill: none; stroke: #808080; stroke-width: 2; stroke-linecap: square"/>
    </g>
    <g id="text_42">
     <!-- Three-sample rolling median -->
     <g transform="translate(338.508071 218.733425) scale(0.082 -0.082)">
      <use xlink:href="#DejaVuSerif-54"/>
      <use xlink:href="#DejaVuSerif-68" transform="translate(66.699219 0)"/>
      <use xlink:href="#DejaVuSerif-72" transform="translate(131.103516 0)"/>
      <use xlink:href="#DejaVuSerif-65" transform="translate(178.90625 0)"/>
      <use xlink:href="#DejaVuSerif-65" transform="translate(238.085938 0)"/>
      <use xlink:href="#DejaVuSerif-2d" transform="translate(297.265625 0)"/>
      <use xlink:href="#DejaVuSerif-73" transform="translate(331.054688 0)"/>
      <use xlink:href="#DejaVuSerif-61" transform="translate(382.373047 0)"/>
      <use xlink:href="#DejaVuSerif-6d" transform="translate(441.992188 0)"/>
      <use xlink:href="#DejaVuSerif-70" transform="translate(536.816406 0)"/>
      <use xlink:href="#DejaVuSerif-6c" transform="translate(600.830078 0)"/>
      <use xlink:href="#DejaVuSerif-65" transform="translate(632.8125 0)"/>
      <use xlink:href="#DejaVuSerif-20" transform="translate(691.992188 0)"/>
      <use xlink:href="#DejaVuSerif-72" transform="translate(723.779297 0)"/>
      <use xlink:href="#DejaVuSerif-6f" transform="translate(771.582031 0)"/>
      <use xlink:href="#DejaVuSerif-6c" transform="translate(831.787109 0)"/>
      <use xlink:href="#DejaVuSerif-6c" transform="translate(863.769531 0)"/>
      <use xlink:href="#DejaVuSerif-69" transform="translate(895.751953 0)"/>
      <use xlink:href="#DejaVuSerif-6e" transform="translate(927.734375 0)"/>
      <use xlink:href="#DejaVuSerif-67" transform="translate(992.138672 0)"/>
      <use xlink:href="#DejaVuSerif-20" transform="translate(1056.152344 0)"/>
      <use xlink:href="#DejaVuSerif-6d" transform="translate(1087.939453 0)"/>
      <use xlink:href="#DejaVuSerif-65" transform="translate(1182.763672 0)"/>
      <use xlink:href="#DejaVuSerif-64" transform="translate(1241.943359 0)"/>
      <use xlink:href="#DejaVuSerif-69" transform="translate(1305.957031 0)"/>
      <use xlink:href="#DejaVuSerif-61" transform="translate(1337.939453 0)"/>
      <use xlink:href="#DejaVuSerif-6e" transform="translate(1397.558594 0)"/>
     </g>
    </g>
   </g>
  </g>
 </g>
 <defs>
  <clipPath id="pb755442907">
   <rect x="43.239375" y="25.579362" width="203.791304" height="202.356"/>
  </clipPath>
  <clipPath id="pcf49190835">
   <rect x="308.168071" y="25.579362" width="203.791304" height="202.356"/>
  </clipPath>
 </defs>
</svg>
